<svg width="236" height="35" viewBox="0 0 236 35" fill="none" xmlns="http://www.w3.org/2000/svg">
<path d="M94.6812 21.6445C94.5253 17.1977 98.134 12.3451 103.995 12.3392C109.542 12.3392 113.31 16.8801 113.313 21.6651C113.306 24.1566 112.311 26.5436 110.547 28.3028C108.782 30.062 106.393 31.0499 103.901 31.0499C98.6545 30.9822 94.4812 26.5354 94.6812 21.6445Z" fill="#6C6C76"/>
<path d="M43.1267 25.0652C43.6943 24.871 43.7149 24.3328 43.8796 23.9211C44.6884 21.8624 45.456 19.8036 46.2324 17.7449C46.95 15.8607 47.6745 13.9756 48.4058 12.0894C48.5174 11.8379 48.6421 11.5925 48.7793 11.3541C49.2323 11.5835 49.2646 11.9894 49.3911 12.3188C50.8243 16.0441 52.2497 19.7693 53.6673 23.4946C53.8643 24.0122 54.0937 24.5181 54.3643 25.1593C54.6172 24.9358 54.8437 24.8298 54.9113 24.6622C55.4231 23.3976 55.9054 22.1241 56.3818 20.8389C57.419 18.1194 58.4572 15.399 59.4964 12.6776C59.6787 12.1982 59.8934 11.7306 60.0846 11.2454C61.1018 11.0574 62.143 11.0376 63.1667 11.1865C63.202 11.3395 63.2609 11.4453 63.2344 11.5188C60.4894 18.8125 57.7318 26.1033 54.9613 33.3912C54.868 33.5943 54.7609 33.7908 54.6408 33.9794C54.1614 33.9147 54.1231 33.5529 54.0084 33.2617L50.938 25.2328C50.4175 23.8741 49.8998 22.5123 49.3705 21.1536C49.2558 20.8595 49.1911 20.5007 48.7587 20.4331C48.2823 20.7919 48.2 21.3771 48.0029 21.9036C46.5834 25.5857 45.1737 29.2708 43.7737 32.9588C43.6267 33.3441 43.5355 33.7588 43.0855 34.1146C42.9905 33.9917 42.9078 33.8596 42.8385 33.7205C40.0004 26.3121 37.1653 18.9008 34.3096 11.4012C34.527 11.2838 34.7596 11.1967 35.0007 11.1424C35.7948 11.1189 36.5888 11.1424 37.2741 11.1424C37.8623 11.5335 37.9358 12.0776 38.1152 12.5482C39.5475 16.2774 40.9621 20.0095 42.3973 23.724C42.5973 24.1975 42.6856 24.7328 43.1267 25.0652Z" fill="#6C6C76"/>
<path d="M201.442 31.0354C201.574 32.0743 201.574 33.1257 201.442 34.1646C201.382 34.2285 201.318 34.2885 201.251 34.344C201.209 34.365 201.163 34.377 201.115 34.3793C200.883 34.3969 200.648 34.4264 200.416 34.4264C195.104 34.4264 189.794 34.4264 184.484 34.4264C184.32 34.409 184.158 34.3795 183.999 34.3381C183.917 34.0888 183.852 33.8343 183.805 33.5764C183.781 33.2485 183.775 32.9197 183.787 32.5912C183.787 26.0523 183.787 19.5154 183.787 12.9805C183.787 12.4246 183.699 11.8541 183.964 11.2806C184.422 11.0012 184.949 11.0924 185.452 11.0894C189.4 11.0894 193.348 11.0894 197.295 11.0894C198.283 11.0894 199.269 11.0894 200.257 11.0894C200.621 11.0894 200.983 11.1659 201.415 11.2129C201.598 12.2452 201.498 13.2128 201.483 14.1539C200.957 14.5422 200.421 14.4187 199.921 14.4187C196.21 14.4187 192.498 14.4187 188.784 14.4187C188.363 14.4187 187.94 14.4186 187.519 14.4598C187.373 14.454 187.231 14.5045 187.121 14.6008C187.012 14.6972 186.944 14.8321 186.931 14.9774C186.875 16.5215 186.713 18.0684 187.022 19.6036C187.022 19.6448 187.081 19.6772 187.128 19.736C187.581 20.0154 188.11 19.8977 188.616 19.9007C191.669 19.9007 194.725 19.9007 197.78 19.9007C198.289 19.9007 198.801 19.9213 199.298 19.9301C199.71 20.4977 199.577 21.0771 199.592 21.6212C199.651 22.1702 199.609 22.7253 199.469 23.2593C198.98 23.6622 198.445 23.5534 197.942 23.5534C195.263 23.5534 192.584 23.5534 189.904 23.5534C189.296 23.5534 188.684 23.5534 188.072 23.5534C187.752 23.5534 187.434 23.6329 187.069 23.6799C186.696 24.821 186.893 25.9533 186.881 27.0591C186.869 28.1649 186.755 29.309 186.984 30.3971C187.452 30.8206 187.99 30.7177 188.493 30.7236C190.184 30.7383 191.878 30.7236 193.569 30.7236C195.628 30.7236 197.704 30.7236 199.771 30.7236C200.289 30.7795 200.824 30.6942 201.442 31.0354Z" fill="#33539E"/>
<path d="M144.078 19.3912H141.031C140.837 19.0265 140.637 18.6618 140.443 18.2912C139.974 17.3672 139.325 16.5463 138.534 15.8767C136.258 13.9562 133.241 13.8444 130.888 15.6532C130.256 16.1394 129.701 16.7173 129.241 17.3678C128.146 18.9423 127.577 20.8226 127.615 22.74C127.653 24.6574 128.296 26.5138 129.453 28.0436C130.994 30.0523 133.032 31.0611 135.608 30.6229C137.581 30.2876 138.999 29.0994 140.075 27.4672C140.37 27.0407 140.602 26.5848 140.881 26.1231C141.93 26.0284 142.985 26.0235 144.034 26.1085C144.016 26.4186 143.97 26.7266 143.899 27.029C143.222 29.0967 141.975 30.9316 140.302 32.3228C136.673 35.2638 131.817 35.1109 128.358 31.8934C126.132 29.8347 124.929 27.2289 124.603 24.2232C124.339 22.1636 124.546 20.071 125.209 18.103C125.894 16.0385 127.14 14.2055 128.808 12.8092C130.42 11.4442 132.464 10.6969 134.576 10.7012C136.687 10.7055 138.729 11.4611 140.334 12.8327C142.222 14.4159 143.561 16.5563 144.158 18.9471C144.15 19.0979 144.124 19.2471 144.078 19.3912Z" fill="#33539E"/>
<path d="M166.007 34.3554C164.698 34.4582 163.383 34.4582 162.074 34.3554C161.836 33.8877 161.595 33.4377 161.377 32.976C159.46 28.8919 157.542 24.8078 155.625 20.7238C155.454 20.3591 155.395 19.8855 154.895 19.7297C154.44 20.0385 154.307 20.5649 154.107 21.0208C152.243 24.9735 150.385 28.9301 148.534 32.8907C148.314 33.3553 148.078 33.8142 147.858 34.2583C147.175 34.5347 146.511 34.3848 145.864 34.4112C145.217 34.4377 144.649 34.4112 144.114 34.4112C143.781 33.973 144.046 33.6847 144.173 33.4112C144.975 31.6613 145.802 29.9203 146.619 28.1734C149.076 22.9423 151.532 17.7082 153.987 12.4713C154.166 12.0889 154.351 11.7096 154.575 11.342C154.61 11.2806 154.66 11.2292 154.721 11.1923C154.781 11.1555 154.85 11.1345 154.92 11.1313C154.991 11.1281 155.061 11.1427 155.125 11.1739C155.188 11.205 155.243 11.2517 155.284 11.3096C155.439 11.5441 155.577 11.7898 155.695 12.0448C159.05 19.1934 162.401 26.344 165.748 33.4965C165.852 33.7771 165.938 34.064 166.007 34.3554Z" fill="#33539E"/>
<path d="M212.221 34.384H208.492C208.227 33.9135 208.545 33.5635 208.709 33.2076C210.297 29.798 211.892 26.3933 213.494 22.9935C215.19 19.3761 216.889 15.7616 218.591 12.15C218.765 11.7853 218.821 11.2295 219.315 11.1883C219.935 11.1383 219.973 11.7765 220.159 12.1647C223.445 19.1349 226.719 26.111 229.982 33.0929C230.155 33.4635 230.455 33.8106 230.302 34.3458C229.044 34.4506 227.78 34.4653 226.52 34.3899C226.273 33.8958 226.032 33.4429 225.814 32.9782C223.956 29.0235 222.098 25.0679 220.241 21.1113C220.026 20.6554 219.879 20.1495 219.491 19.8201C218.965 19.8937 218.903 20.3172 218.744 20.6348C217.691 22.8406 216.653 25.0463 215.612 27.2638C214.694 29.2245 213.776 31.1852 212.856 33.1459C212.659 33.5547 212.436 33.9517 212.221 34.384Z" fill="#33539E"/>
<path d="M40.4315 34.2787C39.0286 34.4934 37.8669 34.3698 36.7876 34.3875C36.2288 34.0346 36.0994 33.5052 35.8818 33.0493C34.0446 29.1437 32.2114 25.2331 30.3821 21.3177C30.1821 20.8942 29.9909 20.4648 29.7615 20.056C29.6511 19.9165 29.5202 19.7945 29.3733 19.6942C28.8616 20.0324 28.7322 20.553 28.5145 21.0118C26.6323 25.0037 24.752 28.9956 22.8737 32.9876C22.656 33.4464 22.4031 33.8905 22.162 34.3434C20.8797 34.411 19.6827 34.4904 18.4828 34.3022C18.3739 33.714 18.6886 33.3346 18.8798 32.9258C21.4424 27.4359 24.0118 21.9529 26.5882 16.4768C27.2881 14.9886 27.9881 13.5014 28.6881 12.0152C28.8439 11.6888 28.9469 11.3065 29.3733 11.183C29.9292 11.43 30.0203 11.9829 30.2321 12.4299C31.6614 15.4415 33.0701 18.462 34.4848 21.4794C36.2494 25.2204 38.0042 28.9603 39.7492 32.6994C39.9639 33.1581 40.1521 33.6287 40.4315 34.2787Z" fill="#6C6C76"/>
<path d="M87.919 11.1654C87.566 12.4006 79.3577 30.1673 77.5842 33.5847C77.4757 33.7682 77.3549 33.9441 77.2225 34.1112C76.6608 34.0435 76.6049 33.6053 76.4549 33.2936C75.1873 30.6202 73.9374 27.935 72.6816 25.2557C70.7209 21.0854 68.7651 16.915 66.8143 12.7447C66.6025 12.2888 66.4261 11.8154 66.2261 11.3272C66.4319 11.2272 66.5466 11.1243 66.6702 11.1184C67.826 11.0264 68.988 11.0442 70.1406 11.1713C70.3788 11.6389 70.6464 12.1271 70.8817 12.6418C72.662 16.4259 74.4393 20.2119 76.2137 23.9999C76.4314 24.4587 76.6755 24.9087 76.8872 25.3234C77.4931 25.3234 77.5431 24.8735 77.6872 24.5676C78.7636 22.3207 79.8106 20.062 80.8664 17.8033C81.7056 16.0171 82.5438 14.2309 83.381 12.4448C83.581 12.0213 83.7986 11.6095 84.0309 11.1418C85.3251 11.0337 86.6263 11.0416 87.919 11.1654Z" fill="#33539E"/>
<path d="M180.806 11.1187C180.941 12.1712 180.941 13.2366 180.806 14.289C180.435 14.3498 180.061 14.391 179.686 14.4126C178.089 14.4273 176.492 14.4126 174.895 14.4126C174.433 14.4126 173.96 14.3626 173.507 14.6096C173.213 15.092 173.31 15.6184 173.31 16.1242C173.31 19.9299 173.31 23.7366 173.31 27.5442V34.1262C172.38 34.4821 172.022 34.5026 170.416 34.2967C170.329 34.0078 170.263 33.7129 170.219 33.4144C170.18 32.9939 170.201 32.5704 170.201 32.1469C170.201 26.8825 170.201 21.619 170.201 16.3566C170.201 15.7684 170.319 15.1302 169.907 14.542C168.819 14.3008 167.689 14.4626 166.572 14.4214C165.454 14.3803 164.325 14.5038 163.146 14.3214C162.851 13.3068 162.94 12.3068 163.063 11.2774C163.637 10.9833 164.207 11.0775 164.757 11.0775C169.5 11.0775 174.243 11.0775 178.986 11.0775C179.548 11.0775 180.106 11.101 180.806 11.1187Z" fill="#33539E"/>
<path d="M15.5619 30.894C15.9383 31.9645 15.7825 32.9027 15.7501 33.835C15.7471 33.9792 15.6885 34.1165 15.5866 34.2184C15.4846 34.3204 15.3472 34.379 15.2031 34.382C14.9237 34.4085 14.6413 34.4085 14.3619 34.4085C10.0896 34.4085 5.81634 34.4085 1.54207 34.4085C1.17444 34.4085 0.806816 34.3614 0.365665 34.332C0.287884 34.0596 0.226989 33.7826 0.183324 33.5026C0.150972 33.1762 0.183324 32.8468 0.183324 32.5175C0.183324 26.0315 0.183324 19.5476 0.183324 13.0656C0.183324 12.5068 0.209797 11.9509 0.224502 11.3745C1.16562 10.9863 2.03322 11.1157 2.87141 11.2216C3.27139 11.5921 3.16551 12.0391 3.16551 12.4479C3.16551 14.2802 3.16551 16.1125 3.16551 17.9447C3.16551 21.6592 3.16551 25.3707 3.16551 29.0823C3.16551 30.7616 3.23609 30.8469 4.90658 30.8469C7.91229 30.8469 10.918 30.8469 13.9208 30.8469C14.4502 30.8381 14.9619 30.8734 15.5619 30.894Z" fill="#6C6C76"/>
<path d="M232.796 11.3711C233.678 11.077 234.484 11.1946 235.269 11.227C235.413 11.2306 235.549 11.2884 235.652 11.3888C235.755 11.4892 235.815 11.6248 235.822 11.7682C235.857 12.0943 235.872 12.4224 235.866 12.7504C235.866 19.4618 235.866 26.1732 235.866 32.8846C235.866 33.1199 235.866 33.3552 235.866 33.5875C235.816 34.211 235.64 34.3933 234.984 34.3933C234.328 34.3933 233.587 34.508 232.843 34.2404C232.787 33.9698 232.751 33.6956 232.734 33.4198C232.734 26.332 232.734 19.2451 232.734 12.1593C232.741 11.8956 232.761 11.6326 232.796 11.3711Z" fill="#6C6C76"/>
<path d="M115.437 10.6066C114.767 10.0478 114.29 9.63019 113.79 9.24492C113.308 8.87075 112.808 8.52129 112.29 8.1979C111.729 7.85473 111.149 7.54445 110.552 7.26857C109.955 6.99318 109.343 6.75453 108.717 6.55392C108.138 6.37587 107.549 6.23533 106.952 6.13331C106.306 6.01594 105.654 5.93645 104.999 5.89514C104.343 5.85543 103.685 5.85543 103.029 5.89514C102.374 5.93576 101.722 6.01327 101.076 6.12742C100.474 6.22754 99.8798 6.3681 99.2968 6.54803C98.671 6.74736 98.0581 6.98503 97.4616 7.25974C96.8651 7.53416 96.2848 7.84246 95.7235 8.18318C95.2031 8.50281 94.7005 8.85036 94.2177 9.22431C93.703 9.62135 93.2207 10.0596 92.7001 10.4978C92.7001 10.3654 92.6442 10.2654 92.6766 10.2037C94.0049 7.92528 95.6485 5.84601 97.5587 4.02757C98.4068 3.21552 99.3261 2.48126 100.306 1.83359C102.758 0.274854 105.27 0.310146 107.735 1.83359C109.033 2.67973 110.219 3.68776 111.264 4.8334C112.747 6.40779 114.062 8.1316 115.19 9.97722C115.287 10.1812 115.369 10.3915 115.437 10.6066Z" fill="#33539E"/>
<path d="M113.156 34.9883C118.417 30.515 120.088 25.78 119.835 20.0098C119.964 20.0892 120.105 20.1244 120.129 20.2009C121.176 22.9802 121.932 25.8212 121.943 28.8181C121.952 29.0999 121.941 29.382 121.908 29.6621C121.679 31.4679 120.799 32.8179 119.132 33.6208C118.201 34.0657 117.21 34.3727 116.191 34.5324C115.185 34.6942 114.17 34.8354 113.156 34.9883Z" fill="#33539E"/>
<path d="M88.1674 19.541C87.6341 25.8387 89.8771 30.906 94.8964 34.7431C94.7729 34.849 94.7052 34.9519 94.6494 34.946C93.1612 34.7725 91.6701 34.6196 90.2378 34.1725C87.2086 33.2344 85.9528 31.5256 86.0175 28.3552C86.045 27.6054 86.1256 26.8585 86.2587 26.1201C86.5804 23.8478 87.2231 21.6327 88.1674 19.541Z" fill="#33539E"/>
</svg>
