<svg width="189" height="50" viewBox="0 0 189 50" fill="none" xmlns="http://www.w3.org/2000/svg">
<path d="M0.653809 9.41511C0.653809 4.31183 4.79083 0.174805 9.89412 0.174805H148.227C170.554 0.174805 188.654 18.2743 188.654 40.6012C188.654 45.7044 184.517 49.8415 179.413 49.8415H41.0802C18.7533 49.8415 0.653809 31.742 0.653809 9.41511Z" fill="url(#paint0_linear_33_13981)"/>
<path d="M30.1376 30.5081V13.5987H30.1603L38.7509 25.7934L37.8216 25.6121L46.3896 13.5987H46.4349V30.5081H44.2589V18.5854L44.3949 19.6961L38.2069 28.4454H38.1616L31.8829 19.6961L32.2683 18.6761V30.5081H30.1376ZM50.7134 25.7254C50.7134 24.7885 50.9325 23.9423 51.3708 23.1867C51.8241 22.4312 52.4437 21.8343 53.2294 21.3961C54.0152 20.9578 54.9068 20.7387 55.9041 20.7387C56.9317 20.7387 57.8308 20.9578 58.6014 21.3961C59.3721 21.8343 59.969 22.4312 60.3921 23.1867C60.8152 23.9423 61.0268 24.7885 61.0268 25.7254C61.0268 26.6623 60.8152 27.5161 60.3921 28.2867C59.969 29.0423 59.3645 29.6392 58.5788 30.0774C57.8081 30.5156 56.909 30.7347 55.8814 30.7347C54.8841 30.7347 53.9925 30.5307 53.2068 30.1227C52.4361 29.6996 51.8241 29.1178 51.3708 28.3774C50.9325 27.6218 50.7134 26.7378 50.7134 25.7254ZM52.8214 25.7481C52.8214 26.3525 52.9574 26.9041 53.2294 27.4027C53.5014 27.8863 53.8641 28.2716 54.3174 28.5587C54.7859 28.8458 55.2997 28.9894 55.8588 28.9894C56.4481 28.9894 56.9694 28.8458 57.4228 28.5587C57.8912 28.2716 58.2539 27.8863 58.5108 27.4027C58.7677 26.9041 58.8961 26.3525 58.8961 25.7481C58.8961 25.1436 58.7677 24.5996 58.5108 24.1161C58.2539 23.6174 57.8912 23.2245 57.4228 22.9374C56.9694 22.6352 56.4481 22.4841 55.8588 22.4841C55.2845 22.4841 54.7632 22.6352 54.2948 22.9374C53.8414 23.2396 53.4788 23.6401 53.2068 24.1387C52.9499 24.6223 52.8214 25.1587 52.8214 25.7481ZM67.417 30.6894C66.7521 30.6894 66.1023 30.5761 65.4677 30.3494C64.8481 30.1076 64.3343 29.7525 63.9263 29.2841L64.8103 28.0601C65.2032 28.4378 65.6037 28.7249 66.0117 28.9214C66.4348 29.1027 66.8503 29.1934 67.2583 29.1934C67.5606 29.1934 67.8401 29.1556 68.097 29.0801C68.3539 29.0045 68.5579 28.8836 68.709 28.7174C68.8752 28.5361 68.9583 28.2943 68.9583 27.9921C68.9583 27.6596 68.845 27.3952 68.6183 27.1987C68.4068 27.0023 68.1272 26.8436 67.7797 26.7227C67.4472 26.6018 67.0921 26.4885 66.7143 26.3827C65.9437 26.1258 65.3543 25.7707 64.9463 25.3174C64.5383 24.8641 64.3343 24.3125 64.3343 23.6627C64.3343 23.1641 64.4552 22.7032 64.697 22.2801C64.9539 21.8418 65.3241 21.4867 65.8077 21.2147C66.3063 20.9427 66.9183 20.8067 67.6437 20.8067C68.2934 20.8067 68.8752 20.8898 69.389 21.0561C69.9028 21.2072 70.3863 21.4641 70.8397 21.8267L70.001 23.1414C69.729 22.8543 69.4041 22.6427 69.0263 22.5067C68.6486 22.3707 68.3086 22.2952 68.0063 22.2801C67.7494 22.2649 67.5001 22.3027 67.2583 22.3934C67.0317 22.4841 66.8428 22.6125 66.6917 22.7787C66.5406 22.9449 66.465 23.1414 66.465 23.3681C66.465 23.6854 66.5708 23.9423 66.7823 24.1387C66.9939 24.3352 67.2659 24.4938 67.5983 24.6147C67.9459 24.7205 68.2859 24.8338 68.6183 24.9547C69.0868 25.0907 69.5023 25.2721 69.865 25.4987C70.2277 25.7254 70.5148 26.0049 70.7263 26.3374C70.953 26.6698 71.0663 27.0854 71.0663 27.5841C71.0663 28.1432 70.9303 28.6645 70.6583 29.1481C70.4014 29.6165 70.001 29.9943 69.457 30.2814C68.9281 30.5534 68.2481 30.6894 67.417 30.6894ZM75.8315 16.9987H77.9395V21.1694H80.5235V22.8241H77.9395V30.5081H75.8315V22.8241H74.1088V21.1694H75.8315V16.9987ZM96.9518 14.1201C98.1456 14.1201 99.1656 14.3241 100.012 14.7321C100.858 15.1249 101.508 15.6992 101.961 16.4547C102.43 17.2103 102.664 18.1245 102.664 19.1974C102.664 19.8472 102.566 20.4894 102.369 21.1241C102.173 21.7436 101.855 22.3103 101.417 22.8241C100.994 23.3227 100.435 23.7232 99.7398 24.0254C99.0447 24.3276 98.1985 24.4787 97.2012 24.4787H94.7758V30.5081H92.5772V14.1201H96.9518ZM97.1785 22.3707C97.8283 22.3707 98.3647 22.2649 98.7878 22.0534C99.211 21.8418 99.5434 21.5774 99.7852 21.2601C100.027 20.9276 100.201 20.5801 100.307 20.2174C100.412 19.8547 100.465 19.5298 100.465 19.2427C100.465 18.9103 100.412 18.5703 100.307 18.2227C100.201 17.8601 100.019 17.5352 99.7625 17.2481C99.5207 16.9458 99.1958 16.7041 98.7878 16.5227C98.395 16.3263 97.9038 16.2281 97.3145 16.2281H94.7758V22.3707H97.1785ZM105.627 25.7254C105.627 24.7885 105.846 23.9423 106.284 23.1867C106.738 22.4312 107.357 21.8343 108.143 21.3961C108.929 20.9578 109.82 20.7387 110.818 20.7387C111.845 20.7387 112.744 20.9578 113.515 21.3961C114.286 21.8343 114.883 22.4312 115.306 23.1867C115.729 23.9423 115.94 24.7885 115.94 25.7254C115.94 26.6623 115.729 27.5161 115.306 28.2867C114.883 29.0423 114.278 29.6392 113.492 30.0774C112.722 30.5156 111.823 30.7347 110.795 30.7347C109.798 30.7347 108.906 30.5307 108.12 30.1227C107.35 29.6996 106.738 29.1178 106.284 28.3774C105.846 27.6218 105.627 26.7378 105.627 25.7254ZM107.735 25.7481C107.735 26.3525 107.871 26.9041 108.143 27.4027C108.415 27.8863 108.778 28.2716 109.231 28.5587C109.699 28.8458 110.213 28.9894 110.772 28.9894C111.362 28.9894 111.883 28.8458 112.336 28.5587C112.805 28.2716 113.167 27.8863 113.424 27.4027C113.681 26.9041 113.81 26.3525 113.81 25.7481C113.81 25.1436 113.681 24.5996 113.424 24.1161C113.167 23.6174 112.805 23.2245 112.336 22.9374C111.883 22.6352 111.362 22.4841 110.772 22.4841C110.198 22.4841 109.677 22.6352 109.208 22.9374C108.755 23.2396 108.392 23.6401 108.12 24.1387C107.863 24.6223 107.735 25.1587 107.735 25.7481ZM125.232 30.7347C124.522 30.7347 123.834 30.5685 123.169 30.2361C122.519 29.9036 122.013 29.4578 121.651 28.8987L121.787 28.2414V35.0187H119.701V20.9881H121.515L121.809 23.3907L121.583 22.7334C122.036 22.1592 122.61 21.6832 123.305 21.3054C124 20.9276 124.779 20.7387 125.64 20.7387C126.516 20.7387 127.302 20.9503 127.997 21.3734C128.707 21.7965 129.267 22.3858 129.675 23.1414C130.083 23.8969 130.287 24.7809 130.287 25.7934C130.287 26.8058 130.067 27.6823 129.629 28.4227C129.191 29.1632 128.587 29.7374 127.816 30.1454C127.06 30.5383 126.199 30.7347 125.232 30.7347ZM124.824 29.0574C125.428 29.0574 125.98 28.9214 126.479 28.6494C126.992 28.3623 127.4 27.9769 127.703 27.4934C128.005 26.9947 128.156 26.4356 128.156 25.8161C128.156 25.1814 128.012 24.6223 127.725 24.1387C127.438 23.6401 127.053 23.2472 126.569 22.9601C126.101 22.6729 125.572 22.5294 124.983 22.5294C124.439 22.5294 123.947 22.6352 123.509 22.8467C123.071 23.0583 122.708 23.3529 122.421 23.7307C122.134 24.0934 121.93 24.5165 121.809 25.0001V26.5641C121.885 27.0476 122.066 27.4783 122.353 27.8561C122.64 28.2338 122.995 28.5285 123.419 28.7401C123.857 28.9516 124.325 29.0574 124.824 29.0574ZM137.013 30.8707C136.167 30.8707 135.465 30.6138 134.905 30.1001C134.361 29.5712 134.074 28.8912 134.044 28.0601V21.1241H136.152V27.3121C136.182 27.8258 136.326 28.2414 136.583 28.5587C136.855 28.8761 137.278 29.0423 137.852 29.0574C138.381 29.0574 138.849 28.9063 139.257 28.6041C139.681 28.2867 140.021 27.8636 140.277 27.3347C140.534 26.7907 140.663 26.1787 140.663 25.4987V21.1241H142.771V30.5081H140.844L140.663 28.1961L140.776 28.6041C140.595 29.0423 140.315 29.4352 139.937 29.7827C139.575 30.1152 139.144 30.3796 138.645 30.5761C138.147 30.7725 137.603 30.8707 137.013 30.8707ZM147.324 12.9641H149.432V30.5081H147.324V12.9641ZM157.885 30.7347C157.009 30.7347 156.208 30.5458 155.482 30.1681C154.772 29.7903 154.205 29.2387 153.782 28.5134C153.374 27.7729 153.17 26.8738 153.17 25.8161C153.17 24.7734 153.389 23.8743 153.828 23.1187C154.266 22.3481 154.848 21.7587 155.573 21.3507C156.313 20.9427 157.122 20.7387 157.998 20.7387C158.875 20.7387 159.615 20.9427 160.22 21.3507C160.824 21.7436 161.285 22.2121 161.602 22.7561L161.466 23.1187L161.67 21.1241H163.62V30.5081H161.512V28.0601L161.738 28.6041C161.678 28.7552 161.542 28.9516 161.33 29.1934C161.134 29.4201 160.862 29.6543 160.514 29.8961C160.182 30.1378 159.797 30.3418 159.358 30.5081C158.92 30.6592 158.429 30.7347 157.885 30.7347ZM158.452 28.9894C158.981 28.9894 159.457 28.8912 159.88 28.6947C160.303 28.4983 160.65 28.2263 160.922 27.8787C161.209 27.5161 161.406 27.0854 161.512 26.5867V24.7507C161.391 24.2974 161.179 23.9045 160.877 23.5721C160.575 23.2245 160.212 22.9601 159.789 22.7787C159.366 22.5823 158.897 22.4841 158.384 22.4841C157.825 22.4841 157.311 22.6201 156.842 22.8921C156.374 23.1641 155.996 23.5418 155.709 24.0254C155.437 24.5089 155.301 25.0756 155.301 25.7254C155.301 26.3298 155.445 26.8814 155.732 27.3801C156.019 27.8787 156.404 28.2716 156.888 28.5587C157.371 28.8458 157.893 28.9894 158.452 28.9894ZM170.056 21.1241L170.26 23.8441L170.146 23.4814C170.388 22.9072 170.736 22.4236 171.189 22.0307C171.657 21.6227 172.141 21.3129 172.64 21.1014C173.153 20.8747 173.599 20.7614 173.977 20.7614L173.864 22.8467C173.153 22.8014 172.526 22.9374 171.982 23.2547C171.453 23.5721 171.03 23.9952 170.713 24.5241C170.411 25.0529 170.26 25.6196 170.26 26.2241V30.5081H168.174V21.1241H170.056Z" fill="#FEFEFC"/>
<defs>
<linearGradient id="paint0_linear_33_13981" x1="-28.7612" y1="0.174808" x2="195.725" y2="24.4498" gradientUnits="userSpaceOnUse">
<stop offset="0.0001" stop-color="#4276D5"/>
<stop offset="1" stop-color="#2F4D8A"/>
</linearGradient>
</defs>
</svg>
