<svg width="32" height="33" viewBox="0 0 32 33" fill="none" xmlns="http://www.w3.org/2000/svg">
<path d="M24.756 23.1231L26.2516 24.6231C26.3873 24.7604 26.4801 24.9339 26.5184 25.1222C26.5567 25.3106 26.5389 25.5056 26.4671 25.683C25.5375 27.9689 23.0719 24.9779 22.3399 24.192C22.2358 24.0795 22.1781 23.9335 22.1782 23.7833V19.6696C22.1782 18.8762 22.5764 18.5079 23.3728 18.5648L23.7097 18.5872C23.963 18.6054 24.2002 18.7187 24.3734 18.9045C24.5467 19.0903 24.6433 19.3347 24.6438 19.5887L24.6483 22.8627C24.6512 22.9609 24.6896 23.0537 24.756 23.1231Z" fill="#2F43FB"/>
<path d="M27.9672 16.3192C28.3863 16.5468 28.7755 16.8402 29.1348 17.1995C31.4073 19.4749 32.3279 21.9764 31.8968 24.7039C30.5989 32.9314 19.7711 34.9209 15.7966 27.4255C15.7247 27.2907 15.6124 27.2234 15.4598 27.2234C11.373 27.1844 7.28915 27.1949 3.20833 27.2548C-0.182364 27.3042 0.0017673 25.1036 0.0017673 22.3461C0.0017673 16.0348 0.00476064 9.72347 0.0107486 3.41213C0.0107486 1.34628 0.684397 0.0932938 2.86702 0.0932938C9.852 0.0902999 16.837 0.091797 23.822 0.0977849C26.0405 0.0977849 27.1094 0.843289 27.1139 3.08878C27.1199 7.18157 27.1258 11.2729 27.1318 15.3627C27.1318 15.6471 27.4088 15.9659 27.9627 16.3192C27.9627 16.3192 27.9642 16.3192 27.9672 16.3192ZM24.6483 2.70256C24.6483 2.66563 24.6336 2.63022 24.6075 2.60412C24.5814 2.57801 24.546 2.56334 24.5091 2.56334H2.61103C2.57411 2.56334 2.5387 2.57801 2.51259 2.60412C2.48648 2.63022 2.47181 2.66563 2.47181 2.70256V7.36421C2.47181 7.40113 2.48648 7.43654 2.51259 7.46265C2.5387 7.48876 2.57411 7.50343 2.61103 7.50343H24.5091C24.546 7.50343 24.5814 7.48876 24.6075 7.46265C24.6336 7.43654 24.6483 7.40113 24.6483 7.36421V2.70256ZM9.85051 12.4076C9.85051 12.2489 9.81926 12.0918 9.75855 11.9453C9.69784 11.7987 9.60885 11.6655 9.49667 11.5533C9.38449 11.4412 9.25131 11.3522 9.10474 11.2915C8.95817 11.2308 8.80108 11.1995 8.64243 11.1995C8.48378 11.1995 8.32669 11.2308 8.18012 11.2915C8.03355 11.3522 7.90037 11.4412 7.78819 11.5533C7.67601 11.6655 7.58702 11.7987 7.52631 11.9453C7.4656 12.0918 7.43435 12.2489 7.43435 12.4076C7.43435 12.728 7.56163 13.0353 7.78819 13.2618C8.01475 13.4884 8.32203 13.6157 8.64243 13.6157C8.96283 13.6157 9.27011 13.4884 9.49667 13.2618C9.72323 13.0353 9.85051 12.728 9.85051 12.4076ZM14.813 12.4031C14.813 12.0803 14.6848 11.7707 14.4566 11.5425C14.2283 11.3143 13.9188 11.186 13.596 11.186C13.2732 11.186 12.9636 11.3143 12.7354 11.5425C12.5072 11.7707 12.3789 12.0803 12.3789 12.4031C12.3789 12.7259 12.5072 13.0354 12.7354 13.2637C12.9636 13.4919 13.2732 13.6202 13.596 13.6202C13.9188 13.6202 14.2283 13.4919 14.4566 13.2637C14.6848 13.0354 14.813 12.7259 14.813 12.4031ZM19.5121 11.699C19.4278 11.5716 19.3176 11.4631 19.188 11.3797C19.0583 11.2963 18.9117 11.2396 18.7565 11.2128C18.6012 11.186 18.4404 11.1897 18.2832 11.2237C18.126 11.2576 17.9754 11.3212 17.8402 11.4107C17.705 11.5002 17.5876 11.6139 17.495 11.7454C17.4023 11.8768 17.336 12.0234 17.3 12.1768C17.264 12.3301 17.2589 12.4873 17.285 12.6392C17.3112 12.7911 17.368 12.9349 17.4523 13.0623C17.5366 13.1897 17.6467 13.2982 17.7764 13.3816C17.906 13.465 18.0527 13.5217 18.2079 13.5485C18.3632 13.5753 18.524 13.5716 18.6812 13.5376C18.8384 13.5037 18.9889 13.4401 19.1242 13.3506C19.2594 13.2611 19.3767 13.1474 19.4694 13.0159C19.5621 12.8845 19.6284 12.7379 19.6644 12.5845C19.7004 12.4311 19.7055 12.274 19.6793 12.1221C19.6532 11.9701 19.5964 11.8264 19.5121 11.699ZM24.6528 12.4031C24.6528 12.2433 24.6213 12.085 24.5602 11.9373C24.499 11.7897 24.4094 11.6555 24.2963 11.5425C24.1833 11.4295 24.0492 11.3398 23.9015 11.2787C23.7538 11.2175 23.5956 11.186 23.4358 11.186C23.113 11.186 22.8034 11.3143 22.5752 11.5425C22.3469 11.7707 22.2187 12.0803 22.2187 12.4031C22.2187 12.7259 22.3469 13.0354 22.5752 13.2637C22.8034 13.4919 23.113 13.6202 23.4358 13.6202C23.5956 13.6202 23.7538 13.5887 23.9015 13.5275C24.0492 13.4663 24.1833 13.3767 24.2963 13.2637C24.4094 13.1507 24.499 13.0165 24.5602 12.8688C24.6213 12.7212 24.6528 12.5629 24.6528 12.4031ZM4.92838 17.3342C4.92838 17.0114 4.80016 16.7019 4.57191 16.4736C4.34367 16.2454 4.03411 16.1171 3.71132 16.1171C3.5515 16.1171 3.39324 16.1486 3.24558 16.2098C3.09792 16.271 2.96375 16.3606 2.85073 16.4736C2.73772 16.5866 2.64807 16.7208 2.58691 16.8685C2.52575 17.0161 2.49427 17.1744 2.49427 17.3342C2.49427 17.657 2.62249 17.9666 2.85073 18.1948C3.07898 18.423 3.38854 18.5513 3.71132 18.5513C4.03411 18.5513 4.34367 18.423 4.57191 18.1948C4.80016 17.9666 4.92838 17.657 4.92838 17.3342ZM9.84602 17.3387C9.84602 17.0171 9.71826 16.7087 9.49086 16.4813C9.26346 16.2539 8.95504 16.1261 8.63345 16.1261C8.31186 16.1261 8.00344 16.2539 7.77603 16.4813C7.54863 16.7087 7.42088 17.0171 7.42088 17.3387C7.42088 17.6603 7.54863 17.9687 7.77603 18.1961C8.00344 18.4235 8.31186 18.5513 8.63345 18.5513C8.95504 18.5513 9.26346 18.4235 9.49086 18.1961C9.71826 17.9687 9.84602 17.6603 9.84602 17.3387ZM14.7322 17.3297C14.7322 17.0141 14.6068 16.7114 14.3836 16.4882C14.1604 16.265 13.8577 16.1396 13.5421 16.1396C13.2265 16.1396 12.9238 16.265 12.7006 16.4882C12.4774 16.7114 12.352 17.0141 12.352 17.3297C12.352 17.6453 12.4774 17.9481 12.7006 18.1712C12.9238 18.3944 13.2265 18.5198 13.5421 18.5198C13.8577 18.5198 14.1604 18.3944 14.3836 18.1712C14.6068 17.9481 14.7322 17.6453 14.7322 17.3297ZM29.5749 23.4779C29.5749 21.8449 28.9262 20.2788 27.7715 19.1241C26.6169 17.9694 25.0508 17.3207 23.4178 17.3207C22.6092 17.3207 21.8086 17.48 21.0615 17.7894C20.3145 18.0988 19.6358 18.5524 19.064 19.1241C18.4923 19.6959 18.0387 20.3746 17.7293 21.1216C17.4199 21.8687 17.2606 22.6693 17.2606 23.4779C17.2606 24.2864 17.4199 25.0871 17.7293 25.8341C18.0387 26.5811 18.4923 27.2599 19.064 27.8316C19.6358 28.4034 20.3145 28.8569 21.0615 29.1663C21.8086 29.4758 22.6092 29.635 23.4178 29.635C25.0508 29.635 26.6169 28.9863 27.7715 27.8316C28.9262 26.6769 29.5749 25.1109 29.5749 23.4779ZM4.93736 22.2608C4.93736 21.9345 4.80772 21.6215 4.57695 21.3907C4.34618 21.1599 4.03319 21.0303 3.70683 21.0303C3.38048 21.0303 3.06748 21.1599 2.83672 21.3907C2.60595 21.6215 2.4763 21.9345 2.4763 22.2608C2.4763 22.5872 2.60595 22.9002 2.83672 23.1309C3.06748 23.3617 3.38048 23.4913 3.70683 23.4913C4.03319 23.4913 4.34618 23.3617 4.57695 23.1309C4.80772 22.9002 4.93736 22.5872 4.93736 22.2608ZM9.855 22.2608C9.855 21.9368 9.7263 21.6261 9.49721 21.3971C9.26813 21.168 8.95742 21.0393 8.63345 21.0393C8.30947 21.0393 7.99877 21.168 7.76968 21.3971C7.5406 21.6261 7.4119 21.9368 7.4119 22.2608C7.4119 22.5848 7.5406 22.8955 7.76968 23.1246C7.99877 23.3537 8.30947 23.4824 8.63345 23.4824C8.95742 23.4824 9.26813 23.3537 9.49721 23.1246C9.7263 22.8955 9.855 22.5848 9.855 22.2608ZM14.7771 22.2698C14.7771 21.9482 14.6494 21.6398 14.422 21.4124C14.1946 21.185 13.8861 21.0572 13.5646 21.0572C13.243 21.0572 12.9345 21.185 12.7071 21.4124C12.4797 21.6398 12.352 21.9482 12.352 22.2698C12.352 22.429 12.3834 22.5867 12.4443 22.7338C12.5052 22.8809 12.5945 23.0146 12.7071 23.1272C12.8197 23.2398 12.9534 23.3291 13.1005 23.3901C13.2476 23.451 13.4053 23.4824 13.5646 23.4824C13.7238 23.4824 13.8815 23.451 14.0286 23.3901C14.1757 23.3291 14.3094 23.2398 14.422 23.1272C14.5346 23.0146 14.6239 22.8809 14.6848 22.7338C14.7458 22.5867 14.7771 22.429 14.7771 22.2698Z" fill="#2F43FB"/>
</svg>
