<svg width="32" height="33" viewBox="0 0 32 33" fill="none" xmlns="http://www.w3.org/2000/svg">
<path d="M28.741 9.59311L23.1904 4.04371C22.7245 3.57802 22.0928 3.31641 21.4341 3.31641C20.7754 3.31641 20.1437 3.57802 19.6779 4.04371L4.36114 19.3592C4.12968 19.5893 3.94617 19.8629 3.82124 20.1644C3.6963 20.4659 3.63243 20.7891 3.63331 21.1154V26.6661C3.63331 27.3249 3.89502 27.9567 4.36088 28.4226C4.82673 28.8884 5.45856 29.1502 6.11738 29.1502H26.9835C27.3788 29.1502 27.7579 28.9931 28.0374 28.7136C28.3169 28.4341 28.474 28.055 28.474 27.6597C28.474 27.2644 28.3169 26.8853 28.0374 26.6058C27.7579 26.3263 27.3788 26.1693 26.9835 26.1693H15.681L28.741 13.1068C28.9718 12.8761 29.1548 12.6023 29.2797 12.3008C29.4046 11.9994 29.4689 11.6763 29.4689 11.35C29.4689 11.0237 29.4046 10.7006 29.2797 10.3991C29.1548 10.0977 28.9718 9.82379 28.741 9.59311ZM17.0473 10.8923L18.4135 12.2585L9.59507 21.0769L8.22883 19.7107L17.0473 10.8923ZM6.61419 26.1693V22.319L8.54182 24.2454L10.4645 26.1693H6.61419ZM13.0728 24.5546L11.7065 23.1884L20.525 14.37L21.8912 15.7362L13.0728 24.5546ZM24.0026 13.6247L19.1587 8.78082L21.4366 6.50293L26.2805 11.3469L24.0026 13.6247Z" fill="#1C1C1C"/>
</svg>
