<svg width="34" height="33" viewBox="0 0 34 33" fill="none" xmlns="http://www.w3.org/2000/svg">
<path d="M30.761 9.05333C30.761 10.2302 30.5292 11.3955 30.0788 12.4828C29.6284 13.57 28.9683 14.5579 28.1362 15.3901C27.304 16.2222 26.3161 16.8823 25.2289 17.3327C24.1416 17.7831 22.9763 18.0149 21.7994 18.0149C19.4227 18.0149 17.1433 17.0707 15.4627 15.3901C13.782 13.7095 12.8379 11.4301 12.8379 9.05333C12.8379 6.67658 13.782 4.39718 15.4627 2.71657C17.1433 1.03596 19.4227 0.0917969 21.7994 0.0917969C22.9763 0.0917969 24.1416 0.323594 25.2289 0.773953C26.3161 1.22431 27.304 1.88441 28.1362 2.71657C28.9683 3.54872 29.6284 4.53664 30.0788 5.6239C30.5292 6.71116 30.761 7.87649 30.761 9.05333ZM23.1823 14.2217C23.4089 14.1221 23.6381 14.032 23.8698 13.9513C26.6716 12.9753 26.8647 8.96578 23.6587 8.25761C22.8827 8.08593 22.1084 7.91082 21.3359 7.73228C18.7479 7.13484 21.9694 4.06011 23.4346 6.76917C23.4532 6.80349 23.4808 6.83214 23.5143 6.85209C23.5479 6.87204 23.5862 6.88254 23.6252 6.88248L25.6261 6.88763C25.6499 6.88781 25.6735 6.8829 25.6953 6.87323C25.7171 6.86356 25.7365 6.84935 25.7524 6.83156C25.7682 6.81376 25.7801 6.79279 25.7872 6.77004C25.7943 6.74729 25.7964 6.72329 25.7935 6.69964C25.5926 5.06184 24.56 4.49016 23.1823 3.93393C23.1016 3.90131 23.0612 3.84122 23.0612 3.75367L23.0715 2.90129C23.075 2.70901 22.9814 2.61459 22.7909 2.61802L20.808 2.64377C20.6209 2.64721 20.5264 2.74249 20.5247 2.92962L20.5221 3.67641C20.5221 3.79487 20.4672 3.87641 20.3573 3.92105C19.5573 4.24037 18.9333 4.65669 18.4852 5.17C17.3933 6.4241 17.6045 8.37607 19.0054 9.32372C19.3642 9.56579 19.9213 9.77352 20.6767 9.94691C21.3307 10.0988 23.4707 10.2894 23.481 11.2937C23.4913 12.7152 20.6844 12.7126 20.1075 11.4431C20.0784 11.3787 20.0313 11.3241 19.972 11.2857C19.9126 11.2474 19.8435 11.2269 19.7728 11.2268H17.7951C17.7744 11.2267 17.754 11.2309 17.7351 11.239C17.7161 11.2471 17.699 11.259 17.6848 11.274C17.6706 11.2889 17.6596 11.3066 17.6524 11.3259C17.6452 11.3452 17.6421 11.3658 17.6431 11.3864C17.723 12.9727 18.9899 13.8457 20.4011 14.2114C20.4402 14.2216 20.4749 14.2444 20.4996 14.2761C20.5243 14.3077 20.5376 14.3466 20.5376 14.3865L20.5402 15.1564C20.5419 15.3401 20.6346 15.4328 20.8183 15.4346L22.7934 15.45C22.9788 15.4517 23.0715 15.3607 23.0715 15.177V14.3942C23.0715 14.3135 23.1085 14.256 23.1823 14.2217Z" fill="#00C82C"/>
<path d="M20.6332 25.6268C21.2632 25.747 21.7688 25.7272 22.1499 25.5676C24.6925 24.5066 27.2359 23.4439 29.7801 22.3795C30.9879 21.8748 32.1209 21.4679 32.945 22.6551C33.6171 23.6259 33.3493 24.9212 32.3115 25.4955C28.478 27.6208 24.6453 29.7505 20.8134 31.8844C20.1825 32.2347 19.4538 32.0956 18.743 31.802C15.0743 30.2844 11.4021 28.7779 7.72651 27.2826C6.7222 26.8758 5.97541 26.9762 4.93247 27.4268C3.44575 28.0689 1.86031 28.7651 0.176163 29.5153C0.160615 29.5225 0.143541 29.5264 0.126505 29.5267C0.10947 29.527 0.0930202 29.5236 0.0786657 29.5169C0.0643112 29.5103 0.0525116 29.5005 0.04435 29.4885C0.0361884 29.4765 0.0319265 29.4627 0.0319548 29.4483L0.0190787 19.5417C0.017362 19.413 0.0774491 19.3254 0.19934 19.2791C2.3041 18.4636 4.45521 17.6722 6.65267 16.9048C7.69304 16.5417 8.74627 16.861 9.85874 17.3374C13.4468 18.8756 17.0194 20.449 20.5765 22.0576C21.3027 22.3856 21.7036 22.8525 21.7791 23.4585C21.9285 24.6714 21.3542 24.8723 20.6126 25.5496C20.5679 25.589 20.5748 25.6148 20.6332 25.6268Z" fill="#00C82C"/>
</svg>
