<svg width="32" height="33" viewBox="0 0 32 33" fill="none" xmlns="http://www.w3.org/2000/svg">
<path d="M26.9351 5.30469H5.07537C4.41656 5.30469 3.78473 5.5664 3.31887 6.03225C2.85302 6.49811 2.59131 7.12994 2.59131 7.78875V25.674C2.59131 26.3328 2.85302 26.9647 3.31887 27.4305C3.78473 27.8964 4.41656 28.1581 5.07537 28.1581H26.9351C27.594 28.1581 28.2258 27.8964 28.6916 27.4305C29.1575 26.9647 29.4192 26.3328 29.4192 25.674V7.78875C29.4192 7.12994 29.1575 6.49811 28.6916 6.03225C28.2258 5.5664 27.594 5.30469 26.9351 5.30469ZM26.4383 25.1772H5.57219V8.28557H26.4383V25.1772ZM8.55307 12.2601C8.55307 11.8648 8.71009 11.4857 8.9896 11.2062C9.26912 10.9267 9.64822 10.7696 10.0435 10.7696H21.967C22.3623 10.7696 22.7414 10.9267 23.0209 11.2062C23.3004 11.4857 23.4575 11.8648 23.4575 12.2601C23.4575 12.6554 23.3004 13.0345 23.0209 13.314C22.7414 13.5935 22.3623 13.7505 21.967 13.7505H10.0435C9.64822 13.7505 9.26912 13.5935 8.9896 13.314C8.71009 13.0345 8.55307 12.6554 8.55307 12.2601ZM8.55307 16.7314C8.55307 16.3361 8.71009 15.957 8.9896 15.6775C9.26912 15.398 9.64822 15.2409 10.0435 15.2409H21.967C22.3623 15.2409 22.7414 15.398 23.0209 15.6775C23.3004 15.957 23.4575 16.3361 23.4575 16.7314C23.4575 17.1267 23.3004 17.5058 23.0209 17.7853C22.7414 18.0648 22.3623 18.2218 21.967 18.2218H10.0435C9.64822 18.2218 9.26912 18.0648 8.9896 17.7853C8.71009 17.5058 8.55307 17.1267 8.55307 16.7314ZM8.55307 21.2027C8.55307 20.8074 8.71009 20.4283 8.9896 20.1488C9.26912 19.8693 9.64822 19.7123 10.0435 19.7123H21.967C22.3623 19.7123 22.7414 19.8693 23.0209 20.1488C23.3004 20.4283 23.4575 20.8074 23.4575 21.2027C23.4575 21.598 23.3004 21.9771 23.0209 22.2566C22.7414 22.5361 22.3623 22.6931 21.967 22.6931H10.0435C9.64822 22.6931 9.26912 22.5361 8.9896 22.2566C8.71009 21.9771 8.55307 21.598 8.55307 21.2027Z" fill="#1C1C1C"/>
</svg>
