<svg width="32" height="32" viewBox="0 0 32 32" fill="none" xmlns="http://www.w3.org/2000/svg">
<path d="M28.9224 19.5143H28.4256V9.08121C28.4256 8.15887 28.0592 7.2743 27.407 6.62211C26.7548 5.96991 25.8702 5.60352 24.9479 5.60352H7.0626C6.14026 5.60352 5.25569 5.96991 4.6035 6.62211C3.95131 7.2743 3.58491 8.15887 3.58491 9.08121V19.5143H3.0881C2.69281 19.5143 2.31371 19.6713 2.0342 19.9508C1.75468 20.2303 1.59766 20.6094 1.59766 21.0047V23.9856C1.59766 24.9079 1.96405 25.7925 2.61625 26.4447C3.26844 27.0969 4.15301 27.4633 5.07535 27.4633H26.9351C27.8575 27.4633 28.742 27.0969 29.3942 26.4447C30.0464 25.7925 30.4128 24.9079 30.4128 23.9856V21.0047C30.4128 20.6094 30.2558 20.2303 29.9763 19.9508C29.6968 19.6713 29.3177 19.5143 28.9224 19.5143ZM6.56579 9.08121C6.56579 8.94944 6.61813 8.82308 6.7113 8.72991C6.80447 8.63674 6.93084 8.58439 7.0626 8.58439H24.9479C25.0796 8.58439 25.206 8.63674 25.2992 8.72991C25.3923 8.82308 25.4447 8.94944 25.4447 9.08121V19.5143H6.56579V9.08121ZM27.4319 23.9856C27.4319 24.1174 27.3796 24.2437 27.2864 24.3369C27.1933 24.4301 27.0669 24.4824 26.9351 24.4824H5.07535C4.94358 24.4824 4.81722 24.4301 4.72405 24.3369C4.63088 24.2437 4.57853 24.1174 4.57853 23.9856V22.4952H27.4319V23.9856ZM19.4829 12.0621C19.4829 12.4574 19.3259 12.8365 19.0464 13.116C18.7669 13.3955 18.3878 13.5525 17.9925 13.5525H14.018C13.6227 13.5525 13.2436 13.3955 12.9641 13.116C12.6846 12.8365 12.5275 12.4574 12.5275 12.0621C12.5275 11.6668 12.6846 11.2877 12.9641 11.0082C13.2436 10.7287 13.6227 10.5716 14.018 10.5716H17.9925C18.3878 10.5716 18.7669 10.7287 19.0464 11.0082C19.3259 11.2877 19.4829 11.6668 19.4829 12.0621Z" fill="#1C1C1C"/>
</svg>
