<svg width="43" height="33" viewBox="0 0 43 33" fill="none" xmlns="http://www.w3.org/2000/svg">
<path d="M36.0764 3.17558C33.3853 1.94078 30.4995 1.03104 27.4822 0.509998C27.4273 0.499942 27.3724 0.525073 27.3441 0.575335C26.9729 1.23544 26.5618 2.09659 26.2739 2.77345C23.0287 2.2876 19.8 2.2876 16.6213 2.77345C16.3333 2.08155 15.9073 1.23544 15.5345 0.575335C15.5062 0.52675 15.4513 0.501619 15.3964 0.509998C12.3807 1.02938 9.49494 1.93912 6.80218 3.17558C6.77887 3.18563 6.75889 3.2024 6.74562 3.22416C1.27187 11.4018 -0.22762 19.3785 0.50798 27.2563C0.511308 27.2948 0.532943 27.3317 0.5629 27.3551C4.17433 30.0073 7.67261 31.6174 11.1059 32.6846C11.1609 32.7013 11.2191 32.6812 11.2541 32.636C12.0662 31.5269 12.7902 30.3575 13.4109 29.1277C13.4475 29.0557 13.4126 28.9702 13.3377 28.9417C12.1894 28.5061 11.0959 27.975 10.0441 27.3719C9.96094 27.3233 9.95428 27.2043 10.0308 27.1473C10.2522 26.9815 10.4735 26.8089 10.6849 26.6347C10.7231 26.6028 10.7764 26.5961 10.8214 26.6162C17.7313 29.7711 25.2121 29.7711 32.0405 26.6162C32.0855 26.5945 32.1388 26.6012 32.1787 26.633C32.3901 26.8072 32.6114 26.9815 32.8344 27.1473C32.911 27.2043 32.906 27.3233 32.8228 27.3719C31.771 27.9867 30.6775 28.5061 29.5275 28.9401C29.4527 28.9685 29.4194 29.0557 29.456 29.1277C30.0901 30.3557 30.814 31.5252 31.6112 32.6343C31.6445 32.6812 31.7044 32.7013 31.7593 32.6846C35.2093 31.6174 38.7075 30.0073 42.319 27.3551C42.3506 27.3317 42.3706 27.2965 42.3739 27.2579C43.2543 18.1504 40.8994 10.2391 36.1313 3.22583C36.1196 3.2024 36.0997 3.18563 36.0764 3.17558ZM14.4428 22.4595C12.3624 22.4595 10.6483 20.5496 10.6483 18.204C10.6483 15.8584 12.3292 13.9485 14.4428 13.9485C16.573 13.9485 18.2706 15.8752 18.2373 18.204C18.2373 20.5496 16.5563 22.4595 14.4428 22.4595ZM28.4724 22.4595C26.3921 22.4595 24.6779 20.5496 24.6779 18.204C24.6779 15.8584 26.3588 13.9485 28.4724 13.9485C30.6027 13.9485 32.3002 15.8752 32.2669 18.204C32.2669 20.5496 30.6027 22.4595 28.4724 22.4595Z" fill="#5B5B5B"/>
</svg>
