<svg width="48" height="48" viewBox="0 0 48 48" fill="none" xmlns="http://www.w3.org/2000/svg">
<path d="M26.8843 11.5652V5.70344C26.8843 4.83298 26.5385 3.99818 25.923 3.38268C25.3075 2.76717 24.4727 2.42139 23.6023 2.42139H5.784C4.91355 2.42139 4.07875 2.76717 3.46324 3.38268C2.84774 3.99818 2.50195 4.83298 2.50195 5.70344V23.5217C2.50195 24.3921 2.84774 25.227 3.46324 25.8425C4.07875 26.458 4.91355 26.8037 5.784 26.8037H11.6457M24.0683 20.7057H41.8866C41.8866 20.7057 45.1686 20.7057 45.1686 23.9877V41.806C45.1686 41.806 45.1686 45.0881 41.8866 45.0881H24.0683C24.0683 45.0881 20.7863 45.0881 20.7863 41.806V23.9877C20.7863 23.9877 20.7863 20.7057 24.0683 20.7057Z" stroke="#31508F" stroke-width="4" stroke-linecap="round" stroke-linejoin="round"/>
<path d="M11.4318 12.2841C11.2142 12.2841 11.0055 12.1976 10.8517 12.0438C10.6978 11.8899 10.6113 11.6812 10.6113 11.4636C10.6113 11.246 10.6978 11.0373 10.8517 10.8834C11.0055 10.7295 11.2142 10.6431 11.4318 10.6431M29.2632 37.4279C29.0456 37.4279 28.8369 37.3414 28.683 37.1876C28.5292 37.0337 28.4427 36.825 28.4427 36.6074C28.4427 36.3898 28.5292 36.1811 28.683 36.0272C28.8369 35.8733 29.0456 35.7869 29.2632 35.7869C29.4808 35.7869 29.6895 35.8733 29.8434 36.0272C29.9973 36.1811 30.0837 36.3898 30.0837 36.6074C30.0837 36.825 29.9973 37.0337 29.8434 37.1876C29.6895 37.3414 29.4808 37.4279 29.2632 37.4279Z" stroke="#31508F" stroke-width="4" stroke-linecap="round" stroke-linejoin="round"/>
<path d="M11.4292 12.2841C11.6468 12.2841 11.8555 12.1976 12.0094 12.0438C12.1633 11.8899 12.2497 11.6812 12.2497 11.4636C12.2497 11.246 12.1633 11.0373 12.0094 10.8834C11.8555 10.7295 11.6468 10.6431 11.4292 10.6431M36.6977 30.6636C36.4801 30.6636 36.2714 30.5771 36.1175 30.4233C35.9636 30.2694 35.8772 30.0607 35.8772 29.8431C35.8772 29.6254 35.9636 29.4168 36.1175 29.2629C36.2714 29.109 36.4801 29.0226 36.6977 29.0226" stroke="#31508F" stroke-width="4" stroke-linecap="round" stroke-linejoin="round"/>
<path d="M36.6948 30.6615C36.9124 30.6615 37.1211 30.5751 37.275 30.4212C37.4289 30.2673 37.5153 30.0586 37.5153 29.841C37.5153 29.6234 37.4289 29.4147 37.275 29.2608C37.1211 29.107 36.9124 29.0205 36.6948 29.0205" stroke="#31508F" stroke-width="4" stroke-linecap="round" stroke-linejoin="round"/>
</svg>
