<svg width="33" height="33" viewBox="0 0 33 33" fill="none" xmlns="http://www.w3.org/2000/svg">
<path d="M25.0944 3.31641H7.20916C6.55035 3.31641 5.91852 3.57812 5.45266 4.04397C4.98681 4.50982 4.7251 5.14166 4.7251 5.80047V27.6602C4.7251 28.3191 4.98681 28.9509 5.45266 29.4167C5.91852 29.8826 6.55035 30.1443 7.20916 30.1443H25.0944C25.7532 30.1443 26.3851 29.8826 26.8509 29.4167C27.3168 28.9509 27.5785 28.3191 27.5785 27.6602V5.80047C27.5785 5.14166 27.3168 4.50982 26.8509 4.04397C26.3851 3.57812 25.7532 3.31641 25.0944 3.31641ZM24.5976 27.1634H7.70598V6.29728H24.5976V27.1634ZM9.69323 10.7686C9.69323 10.3756 9.80978 9.99135 10.0281 9.66454C10.2465 9.33774 10.5569 9.08303 10.92 8.93262C11.2831 8.78221 11.6827 8.74286 12.0682 8.81953C12.4537 8.89621 12.8078 9.08548 13.0857 9.3634C13.3636 9.64132 13.5529 9.99542 13.6295 10.3809C13.7062 10.7664 13.6669 11.166 13.5165 11.5291C13.3661 11.8922 13.1113 12.2026 12.7845 12.4209C12.4577 12.6393 12.0735 12.7559 11.6805 12.7559C11.1534 12.7559 10.648 12.5465 10.2753 12.1738C9.9026 11.8011 9.69323 11.2957 9.69323 10.7686ZM9.69323 22.6921C9.69323 22.2991 9.80978 21.9149 10.0281 21.5881C10.2465 21.2613 10.5569 21.0065 10.92 20.8561C11.2831 20.7057 11.6827 20.6664 12.0682 20.743C12.4537 20.8197 12.8078 21.009 13.0857 21.2869C13.3636 21.5648 13.5529 21.9189 13.6295 22.3044C13.7062 22.6899 13.6669 23.0895 13.5165 23.4526C13.3661 23.8157 13.1113 24.1261 12.7845 24.3445C12.4577 24.5628 12.0735 24.6794 11.6805 24.6794C11.1534 24.6794 10.648 24.47 10.2753 24.0973C9.9026 23.7246 9.69323 23.2192 9.69323 22.6921ZM9.69323 16.7304C9.69323 16.3373 9.80978 15.9531 10.0281 15.6263C10.2465 15.2995 10.5569 15.0448 10.92 14.8944C11.2831 14.744 11.6827 14.7046 12.0682 14.7813C12.4537 14.858 12.8078 15.0472 13.0857 15.3252C13.3636 15.6031 13.5529 15.9572 13.6295 16.3427C13.7062 16.7282 13.6669 17.1277 13.5165 17.4908C13.3661 17.854 13.1113 18.1643 12.7845 18.3827C12.4577 18.6011 12.0735 18.7176 11.6805 18.7176C11.1534 18.7176 10.648 18.5082 10.2753 18.1356C9.9026 17.7629 9.69323 17.2574 9.69323 16.7304Z" fill="#1C1C1C"/>
</svg>
