<svg width="27" height="22" viewBox="0 0 27 22" fill="none" xmlns="http://www.w3.org/2000/svg">
<path d="M24.4859 6.13451L22.8459 8.60118C23.6368 10.1786 24.024 11.9276 23.9728 13.6915C23.9216 15.4553 23.4336 17.1789 22.5526 18.7078H4.07257C2.92746 16.7213 2.45296 14.4187 2.71942 12.1413C2.98588 9.86386 3.97911 7.73294 5.55187 6.06441C7.12463 4.39588 9.19319 3.27857 11.4509 2.87811C13.7086 2.47764 16.0352 2.81536 18.0859 3.84118L20.5526 2.20118C18.0412 0.590799 15.0623 -0.130816 12.0924 0.151759C9.12251 0.434334 6.33316 1.70477 4.17056 3.75986C2.00795 5.81495 0.597049 8.53594 0.163523 11.4876C-0.270002 14.4393 0.298901 17.451 1.77923 20.0412C2.01191 20.4442 2.34602 20.7793 2.74834 21.0132C3.15066 21.2472 3.6072 21.3717 4.07257 21.3745H22.5392C23.0091 21.3764 23.4712 21.254 23.8786 21.0199C24.286 20.7858 24.6243 20.4481 24.8592 20.0412C26.0877 17.9131 26.7043 15.4869 26.6407 13.0304C26.5772 10.574 25.8361 8.18294 24.4992 6.12118L24.4859 6.13451ZM11.4326 15.2545C11.6802 15.5024 11.9743 15.6991 12.2981 15.8333C12.6218 15.9675 12.9688 16.0366 13.3192 16.0366C13.6697 16.0366 14.0167 15.9675 14.3404 15.8333C14.6641 15.6991 14.9582 15.5024 15.2059 15.2545L22.7526 3.93451L11.4326 11.4812C11.1846 11.7288 10.9879 12.0229 10.8537 12.3467C10.7195 12.6704 10.6505 13.0174 10.6505 13.3678C10.6505 13.7183 10.7195 14.0653 10.8537 14.389C10.9879 14.7127 11.1846 15.0068 11.4326 15.2545Z" fill="#AD2FFB"/>
</svg>
