<svg id="Layer_1" data-name="Layer 1" xmlns="http://www.w3.org/2000/svg" viewBox="0 0 500 476.13"><defs><style>.cls-1{fill:#6c6c75;}.cls-2{fill:#2352a0;}</style></defs><circle class="cls-1" cx="249.96" cy="290.64" r="131.42"/><path class="cls-2" d="M137.82,476.13c-134.54-8.64-160.57-45-120.1-185.54Q29.8,256.51,42.57,227.4a217.14,217.14,0,0,0,95.25,248.73Z"/><path class="cls-2" d="M250,73.93A216.58,216.58,0,0,0,70.38,169.18c46.14-86.62,93-131,127.32-153.47a94.9,94.9,0,0,1,104.6,0c34.32,22.48,81.06,66.85,127.21,153.47A216.4,216.4,0,0,0,250,73.93Z"/><path class="cls-2" d="M362.18,476.13A217.14,217.14,0,0,0,457.43,227.4q12.6,29.11,24.85,63.19C522.75,431.16,496.72,467.49,362.18,476.13Z"/></svg>