<svg width="39" height="39" viewBox="0 0 39 39" fill="none" xmlns="http://www.w3.org/2000/svg">
<path fill-rule="evenodd" clip-rule="evenodd" d="M19.6665 0.84082C14.5061 0.84082 13.8601 0.862354 11.8334 0.95482C9.81057 1.04729 8.42864 1.36902 7.22024 1.83895C5.95357 2.31522 4.8047 3.06255 3.8547 4.03029C2.88852 4.97919 2.14072 6.12725 1.66337 7.39455C1.19597 8.60295 0.872971 9.98615 0.780504 12.009C0.689304 14.0344 0.666504 14.6792 0.666504 19.8408C0.666504 25.0025 0.688037 25.6472 0.780504 27.6739C0.872971 29.6968 1.1947 31.0787 1.66464 32.2871C2.1409 33.5538 2.88824 34.7026 3.85597 35.6526C4.8049 36.6188 5.95295 37.3666 7.22024 37.844C8.42864 38.3126 9.81057 38.6344 11.8334 38.7268C13.8601 38.8193 14.5061 38.8408 19.6665 38.8408C24.8269 38.8408 25.4729 38.8193 27.4996 38.7268C29.5224 38.6344 30.9044 38.3126 32.1128 37.8427C33.3794 37.3664 34.5283 36.6191 35.4783 35.6514C36.4445 34.7024 37.1923 33.5544 37.6696 32.2871C38.1383 31.0787 38.46 29.6968 38.5525 27.6739C38.645 25.6472 38.6665 25.0012 38.6665 19.8408C38.6665 14.6804 38.645 14.0344 38.5525 12.0078C38.46 9.98489 38.1383 8.60295 37.6684 7.39455C37.1914 6.1267 36.4435 4.97816 35.477 4.02902C34.5281 3.06283 33.3801 2.31504 32.1128 1.83769C30.9044 1.37029 29.5212 1.04729 27.4983 0.95482C25.4729 0.86362 24.8282 0.84082 19.6665 0.84082ZM19.6665 4.26462C24.7395 4.26462 25.3412 4.28362 27.345 4.37482C29.1969 4.45969 30.2026 4.76749 30.8727 5.02969C31.7594 5.37295 32.3927 5.78589 33.0577 6.44962C33.7227 7.11462 34.1344 7.74795 34.4776 8.63462C34.7386 9.30469 35.0476 10.3104 35.1325 12.1623C35.2237 14.1662 35.2427 14.7678 35.2427 19.8408C35.2427 24.9138 35.2237 25.5155 35.1325 27.5194C35.0476 29.3712 34.7398 30.377 34.4776 31.047C34.1736 31.8723 33.6883 32.6189 33.0577 33.232C32.4447 33.8628 31.6981 34.348 30.8727 34.652C30.2026 34.9129 29.1969 35.222 27.345 35.3068C25.3412 35.398 24.7408 35.417 19.6665 35.417C14.5922 35.417 13.9918 35.398 11.988 35.3068C10.1361 35.222 9.13037 34.9142 8.4603 34.652C7.63501 34.3479 6.88838 33.8627 6.2753 33.232C5.64473 32.6189 5.15953 31.8723 4.85537 31.047C4.59444 30.377 4.28537 29.3712 4.2005 27.5194C4.1093 25.5155 4.0903 24.9138 4.0903 19.8408C4.0903 14.7678 4.1093 14.1662 4.2005 12.1623C4.28537 10.3104 4.59317 9.30469 4.85537 8.63462C5.19864 7.74795 5.61157 7.11462 6.2753 6.44962C6.8883 5.81888 7.63496 5.33366 8.4603 5.02969C9.13037 4.76875 10.1361 4.45969 11.988 4.37482C13.9918 4.28362 14.5935 4.26462 19.6665 4.26462Z" fill="#5B5B5B"/>
<path fill-rule="evenodd" clip-rule="evenodd" d="M19.6669 26.1797C18.8343 26.1797 18.01 26.0157 17.2408 25.6971C16.4716 25.3785 15.7727 24.9115 15.1841 24.3229C14.5954 23.7342 14.1284 23.0353 13.8098 22.2661C13.4912 21.497 13.3272 20.6726 13.3272 19.84C13.3272 19.0075 13.4912 18.1831 13.8098 17.4139C14.1284 16.6448 14.5954 15.9459 15.1841 15.3572C15.7727 14.7685 16.4716 14.3015 17.2408 13.9829C18.01 13.6643 18.8343 13.5004 19.6669 13.5004C21.3483 13.5004 22.9608 14.1683 24.1497 15.3572C25.3386 16.5461 26.0065 18.1586 26.0065 19.84C26.0065 21.5214 25.3386 23.1339 24.1497 24.3229C22.9608 25.5118 21.3483 26.1797 19.6669 26.1797ZM19.6669 10.074C17.0768 10.074 14.5928 11.1029 12.7613 12.9344C10.9298 14.7659 9.90088 17.2499 9.90088 19.84C9.90088 22.4301 10.9298 24.9142 12.7613 26.7456C14.5928 28.5771 17.0768 29.606 19.6669 29.606C22.257 29.606 24.741 28.5771 26.5725 26.7456C28.404 24.9142 29.4329 22.4301 29.4329 19.84C29.4329 17.2499 28.404 14.7659 26.5725 12.9344C24.741 11.1029 22.257 10.074 19.6669 10.074ZM32.274 9.8967C32.274 10.5089 32.0308 11.0961 31.5979 11.5291C31.1649 11.962 30.5778 12.2052 29.9655 12.2052C29.3533 12.2052 28.7661 11.962 28.3332 11.5291C27.9002 11.0961 27.657 10.5089 27.657 9.8967C27.657 9.28444 27.9002 8.69727 28.3332 8.26434C28.7661 7.83141 29.3533 7.5882 29.9655 7.5882C30.5778 7.5882 31.1649 7.83141 31.5979 8.26434C32.0308 8.69727 32.274 9.28444 32.274 9.8967Z" fill="#5B5B5B"/>
</svg>
