<svg width="41" height="36" viewBox="0 0 41 36" fill="none" xmlns="http://www.w3.org/2000/svg">
<path d="M22.065 1.72383V4.75716H25.4883C26.0967 4.75716 26.6913 4.94089 27.1939 5.28236L30.1354 7.28263C30.2065 7.33116 30.2914 7.35716 30.3781 7.35716H37.4882C37.833 7.35716 38.1637 7.49413 38.4075 7.73792C38.6513 7.98172 38.7882 8.31238 38.7882 8.65716C38.7882 9.00194 38.6513 9.3326 38.4075 9.5764C38.1637 9.8202 37.833 9.95716 37.4882 9.95716H34.753L40.5874 23.2692C40.7045 23.5353 40.7288 23.833 40.6565 24.1146C40.5842 24.3962 40.4195 24.6454 40.1887 24.8222C40.0154 24.9505 39.8369 25.0701 39.6514 25.1793C39.2118 25.4417 38.7542 25.6728 38.2821 25.8709C36.7143 26.5266 35.0311 26.8619 33.3317 26.8572C31.633 26.8625 29.9503 26.5278 28.383 25.8726C27.9106 25.6744 27.453 25.4427 27.0137 25.1793C26.8298 25.0729 26.6521 24.956 26.4815 24.8292L26.4729 24.8222C26.2421 24.6454 26.0774 24.3962 26.0051 24.1146C25.9329 23.833 25.9572 23.5353 26.0742 23.2692L31.9121 9.95716H30.3764C29.768 9.95716 29.1734 9.77343 28.6708 9.43196L25.7293 7.4317C25.6578 7.38279 25.5732 7.35679 25.4866 7.35716H22.065V32.4905H29.8425C30.1873 32.4905 30.5179 32.6275 30.7617 32.8713C31.0055 33.1151 31.1425 33.4457 31.1425 33.7905C31.1425 34.1353 31.0055 34.4659 30.7617 34.7097C30.5179 34.9535 30.1873 35.0905 29.8425 35.0905H11.6875C11.3428 35.0905 11.0121 34.9535 10.7683 34.7097C10.5245 34.4659 10.3875 34.1353 10.3875 33.7905C10.3875 33.4457 10.5245 33.1151 10.7683 32.8713C11.0121 32.6275 11.3428 32.4905 11.6875 32.4905H19.465V7.35716H16.0417C15.9551 7.35712 15.8706 7.38309 15.799 7.4317L12.8593 9.43196C12.3566 9.77343 11.7621 9.95716 11.1537 9.95716H9.61795L15.4558 23.2692C15.5688 23.5278 15.5946 23.8161 15.5292 24.0907C15.4639 24.3652 15.3109 24.6111 15.0935 24.791C14.9549 24.9037 14.8162 25.0094 14.5562 25.1776C14.1179 25.4614 13.659 25.7123 13.1834 25.9281C11.6179 26.6393 9.91784 27.0058 8.19835 27.0028C6.4788 27.0064 4.77861 26.6399 3.21328 25.9281C2.73771 25.7123 2.27884 25.4614 1.84048 25.1776C1.65511 25.0597 1.47631 24.9318 1.30488 24.7945C1.08922 24.6125 0.937517 24.3662 0.872012 24.0917C0.806508 23.8172 0.830643 23.5289 0.940882 23.2692L6.77701 9.95716H4.04355C3.69877 9.95716 3.36811 9.8202 3.12431 9.5764C2.88051 9.3326 2.74355 9.00194 2.74355 8.65716C2.74355 8.31238 2.88051 7.98172 3.12431 7.73792C3.36811 7.49413 3.69877 7.35716 4.04355 7.35716H11.1537C11.2403 7.35716 11.3253 7.33116 11.3981 7.28263L14.3361 5.28236C14.8387 4.93916 15.435 4.75716 16.0434 4.75716H19.465V1.72383C19.465 1.37905 19.602 1.04839 19.8458 0.804589C20.0896 0.560792 20.4202 0.423828 20.765 0.423828C21.1098 0.423828 21.4405 0.560792 21.6843 0.804589C21.928 1.04839 22.065 1.37905 22.065 1.72383ZM3.76622 23.3004C5.13042 24.0266 6.65288 24.4047 8.19835 24.401C9.74382 24.4047 11.2663 24.0266 12.6305 23.3004L8.19835 13.195L3.76622 23.3004ZM28.9169 23.2588C29.059 23.3281 29.2185 23.4026 29.3936 23.4772C30.3122 23.8637 31.6556 24.2572 33.3317 24.2572C34.8597 24.2614 36.369 23.9201 37.7465 23.2588L33.3317 13.1933L28.9169 23.2588Z" fill="#31508F"/>
</svg>
