<svg width="60" height="61" viewBox="0 0 60 61" fill="none" xmlns="http://www.w3.org/2000/svg">
<rect y="60.4092" width="60" height="60" rx="30" transform="rotate(-90 0 60.4092)" fill="#315190"/>
<path d="M22.6665 30.3562C22.6665 30.1183 22.7035 29.8952 22.7775 29.6871C22.8515 29.4789 22.9773 29.2856 23.1549 29.1072L31.3234 20.8998C31.649 20.5727 32.0633 20.4092 32.5665 20.4092C33.0696 20.4092 33.484 20.5727 33.8095 20.8998C34.1351 21.2269 34.2979 21.6433 34.2979 22.1488C34.2979 22.6543 34.1351 23.0706 33.8095 23.3977L26.884 30.3562L33.8095 37.3146C34.1351 37.6417 34.2979 38.058 34.2979 38.5636C34.2979 39.0691 34.1351 39.4854 33.8095 39.8125C33.484 40.1396 33.0696 40.3032 32.5665 40.3032C32.0633 40.3032 31.649 40.1396 31.3234 39.8125L23.1549 31.6051C22.9773 31.4267 22.8515 31.2334 22.7775 31.0252C22.7035 30.8171 22.6665 30.5941 22.6665 30.3562Z" fill="white"/>
</svg>
