<svg width="32" height="32" viewBox="0 0 32 32" fill="none" xmlns="http://www.w3.org/2000/svg">
<path d="M25.9894 3.61523H6.11688C5.45806 3.61523 4.82623 3.87695 4.36038 4.3428C3.89453 4.80865 3.63281 5.44048 3.63281 6.0993V25.9718C3.63281 26.6306 3.89453 27.2625 4.36038 27.7283C4.82623 28.1942 5.45806 28.4559 6.11688 28.4559H25.9894C26.6482 28.4559 27.28 28.1942 27.7459 27.7283C28.2118 27.2625 28.4735 26.6306 28.4735 25.9718V6.0993C28.4735 5.44048 28.2118 4.80865 27.7459 4.3428C27.28 3.87695 26.6482 3.61523 25.9894 3.61523ZM21.0213 16.0356V25.475H17.5436V16.0356H21.0213ZM14.5627 25.475H11.085V16.0356H14.5627V25.475ZM25.4926 25.475H24.0021V14.5451C24.0021 14.1498 23.8451 13.7707 23.5656 13.4912C23.2861 13.2117 22.907 13.0547 22.5117 13.0547H9.59457C9.19928 13.0547 8.82018 13.2117 8.54067 13.4912C8.26116 13.7707 8.10413 14.1498 8.10413 14.5451V25.475H6.61369V6.59611H25.4926V25.475ZM12.5754 9.57699C12.5754 9.1817 12.7325 8.8026 13.012 8.52309C13.2915 8.24358 13.6706 8.08655 14.0659 8.08655H18.0404C18.4357 8.08655 18.8148 8.24358 19.0943 8.52309C19.3738 8.8026 19.5308 9.1817 19.5308 9.57699C19.5308 9.97228 19.3738 10.3514 19.0943 10.6309C18.8148 10.9104 18.4357 11.0674 18.0404 11.0674H14.0659C13.6706 11.0674 13.2915 10.9104 13.012 10.6309C12.7325 10.3514 12.5754 9.97228 12.5754 9.57699Z" fill="#1C1C1C"/>
</svg>
