<svg width="33" height="33" viewBox="0 0 33 33" fill="none" xmlns="http://www.w3.org/2000/svg">
<g clip-path="url(#clip0_33_14260)">
<path d="M16.3331 0.409668C11.6008 0.409668 7.7177 4.29275 7.7177 9.02505V10.2558H6.48693C5.13308 10.2558 4.02539 11.3635 4.02539 12.7174V27.4866C4.02539 28.8404 5.13308 29.9481 6.48693 29.9481H26.1792C27.5331 29.9481 28.6408 28.8404 28.6408 27.4866V12.7174C28.6408 11.3635 27.5331 10.2558 26.1792 10.2558H24.9485V9.02505C24.9485 4.29275 21.0654 0.409668 16.3331 0.409668ZM16.3331 2.87121C19.7239 2.87121 22.4869 5.63428 22.4869 9.02505V10.2558H10.1792V9.02505C10.1792 5.63428 12.9423 2.87121 16.3331 2.87121ZM16.3331 13.9481C19.7792 13.9481 22.4869 16.6558 22.4869 20.102C22.4869 23.5481 19.7792 26.2558 16.3331 26.2558C12.8869 26.2558 10.1792 23.5481 10.1792 20.102C10.1792 16.6558 12.8869 13.9481 16.3331 13.9481ZM16.3331 16.4097C14.2408 16.4097 12.6408 18.0097 12.6408 20.102C12.6408 22.1943 14.2408 23.7943 16.3331 23.7943C18.4254 23.7943 20.0254 22.1943 20.0254 20.102C20.0254 19.7327 19.9097 19.3561 19.9097 18.9869C19.5405 19.6023 18.9177 20.102 18.1792 20.102C17.1946 20.102 16.3331 19.2404 16.3331 18.2558C16.3331 17.5174 16.8328 16.8946 17.4482 16.5254C17.0789 16.5254 16.7023 16.4097 16.3331 16.4097Z" fill="#C89C00"/>
</g>
<defs>
<clipPath id="clip0_33_14260">
<rect width="32" height="32" fill="white" transform="translate(0.333496 0.409668)"/>
</clipPath>
</defs>
</svg>
