<svg width="32" height="33" viewBox="0 0 32 33" fill="none" xmlns="http://www.w3.org/2000/svg">
<path d="M31.1198 19.7123C30.9546 19.5297 28.17 16.5016 23.6415 14.6584C23.3745 12.388 22.5113 10.3237 21.145 8.7327C19.2236 6.4871 16.4502 5.30469 13.1227 5.30469C6.47042 5.30469 2.15436 11.2404 1.97426 11.4925C1.74368 11.8142 1.65032 12.2143 1.71472 12.6048C1.77913 12.9953 1.99602 13.3442 2.31768 13.5748C2.63935 13.8053 3.03944 13.8987 3.42994 13.8343C3.82044 13.7699 4.16937 13.553 4.39995 13.2313C4.43473 13.1767 7.98694 8.28557 13.1227 8.28557C15.5882 8.28557 17.5258 9.08668 18.8833 10.6678C19.6118 11.5346 20.1379 12.5529 20.4234 13.6487C19.1918 13.3851 17.9357 13.2527 16.6762 13.2537C13.3227 13.2537 10.4921 14.1393 8.49742 15.816C6.70144 17.3263 5.67055 19.4365 5.67055 21.6064C5.67055 24.8617 8.08506 28.1581 12.7017 28.1581C19.1516 28.1581 22.9286 23.1552 23.6154 17.92C25.5802 18.8754 27.3698 20.1552 28.909 21.7057C29.0364 21.8628 29.1945 21.9922 29.3736 22.0862C29.5527 22.1802 29.749 22.2368 29.9507 22.2525C30.1523 22.2682 30.355 22.2427 30.5465 22.1775C30.738 22.1124 30.9142 22.0089 31.0644 21.8735C31.2146 21.738 31.3357 21.5734 31.4202 21.3897C31.5048 21.206 31.5511 21.007 31.5562 20.8048C31.5614 20.6026 31.5254 20.4015 31.4504 20.2136C31.3753 20.0258 31.2629 19.8552 31.1198 19.7123ZM18.6336 22.4124C17.6052 23.6744 15.7422 25.1772 12.7017 25.1772C9.9034 25.1772 8.65143 23.3837 8.65143 21.6064C8.65143 19.0192 11.1628 16.2346 16.6762 16.2346C18.0475 16.2382 19.4117 16.4313 20.7302 16.8084C20.6048 18.8975 19.8558 20.9121 18.6336 22.4124Z" fill="#1C1C1C"/>
</svg>
