<svg width="35" height="36" viewBox="0 0 35 36" fill="none" xmlns="http://www.w3.org/2000/svg">
<path d="M33.1848 8.6778V21.0587H29.8832V10.3286L21.6293 4.55081L13.3753 10.3286V12.8048H10.0737V8.6778L21.6293 0.423828L33.1848 8.6778ZM24.1055 9.50319H22.4547V11.154H24.1055V9.50319ZM20.8039 9.50319H19.1531V11.154H20.8039V9.50319ZM24.1055 12.8048H22.4547V14.4556H24.1055V12.8048ZM20.8039 12.8048H19.1531V14.4556H20.8039V12.8048ZM29.8832 24.3603H26.5816C26.5816 22.3794 25.3435 20.5965 23.4947 19.9032L13.3258 16.1064H0.168945V34.2651H10.0737V31.888L21.6293 35.0905L34.8356 30.9635V29.3127C34.8356 26.5724 32.6236 24.3603 29.8832 24.3603ZM3.47053 30.9635V19.408H6.77212V30.9635H3.47053ZM21.5797 31.6403L10.0737 28.4543V19.408H12.7315L22.3391 22.9902C22.9004 23.2048 23.2801 23.7495 23.2801 24.3603C23.2801 24.3603 19.995 24.2778 19.4832 24.1127L15.5543 22.8086L14.5143 25.9451L18.4432 27.2492C19.2851 27.5299 20.1601 27.6784 21.0515 27.6784H29.8832C30.527 27.6784 31.1048 28.0581 31.3689 28.6029L21.5797 31.6403Z" fill="#31508F"/>
</svg>
