<svg width="61" height="61" viewBox="0 0 61 61" fill="none" xmlns="http://www.w3.org/2000/svg">
<rect x="60.6665" y="0.40918" width="60" height="60" rx="30" transform="rotate(90 60.6665 0.40918)" fill="#315190"/>
<path d="M37.9995 30.4622C37.9995 30.7001 37.9625 30.9231 37.8885 31.1313C37.8145 31.3394 37.6887 31.5327 37.5112 31.7111L29.3426 39.9185C29.017 40.2456 28.6027 40.4092 28.0995 40.4092C27.5964 40.4092 27.1821 40.2456 26.8565 39.9185C26.5309 39.5914 26.3682 39.1751 26.3682 38.6696C26.3682 38.164 26.5309 37.7477 26.8565 37.4206L33.782 30.4622L26.8565 23.5038C26.5309 23.1767 26.3682 22.7603 26.3682 22.2548C26.3682 21.7493 26.5309 21.333 26.8565 21.0059C27.1821 20.6788 27.5964 20.5152 28.0995 20.5152C28.6027 20.5152 29.017 20.6788 29.3426 21.0059L37.5112 29.2132C37.6887 29.3917 37.8145 29.585 37.8885 29.7931C37.9625 30.0013 37.9995 30.2243 37.9995 30.4622Z" fill="white"/>
</svg>
