<svg width="103" height="103" viewBox="0 0 103 103" fill="none" xmlns="http://www.w3.org/2000/svg">
<path d="M90.6875 18.6414C89.7274 17.4943 88.7112 16.3971 87.6451 15.3373C78.3998 6.17292 65.6881 0.499756 51.6673 0.499756C37.6465 0.499756 24.9349 6.17292 15.6895 15.3373C14.6234 16.3971 13.6072 17.4943 12.6472 18.6414C5.10373 27.5439 0.552734 39.0586 0.552734 51.6143C0.552734 64.1701 5.10373 75.6848 12.6472 84.5873C13.6072 85.7344 14.6234 86.8316 15.6895 87.8914C24.9349 97.0557 37.6465 102.729 51.6673 102.729C65.6881 102.729 78.3998 97.0557 87.6451 87.8914C88.7112 86.8316 89.7274 85.7344 90.6875 84.5873C98.2309 75.6848 102.782 64.1701 102.782 51.6143C102.782 39.0586 98.2309 27.5439 90.6875 18.6414ZM83.3622 17.2886C79.8025 18.7225 75.7377 19.9257 71.3114 20.8296C69.1606 14.7824 66.3739 9.80125 63.1446 6.28514C70.8064 8.23022 77.7265 12.0705 83.3622 17.2886ZM51.6673 4.86373C57.7021 4.86373 63.2131 11.4409 66.9287 21.6151C62.1221 22.357 56.9851 22.7622 51.6673 22.7622C46.3495 22.7622 41.2125 22.357 36.4059 21.6151C40.1215 11.4409 45.6326 4.86373 51.6673 4.86373ZM40.1963 6.28514C36.9607 9.80125 34.174 14.7824 32.0232 20.8296C27.5969 19.9257 23.5322 18.7225 19.9724 17.2886C25.6082 12.0705 32.5282 8.23022 40.1963 6.28514ZM19.9724 85.9401C23.5322 84.5062 27.5969 83.303 32.0232 82.399C34.1803 88.4463 36.967 93.4274 40.2025 96.9435C32.5344 95.0047 25.6144 91.1582 19.9724 85.9401ZM51.6673 98.3649C45.6326 98.3649 40.1215 91.7878 36.4059 81.6135C41.2125 80.8717 46.3495 80.4664 51.6673 80.4664C56.9851 80.4664 62.1221 80.8717 66.9287 81.6135C63.2131 91.7878 57.7021 98.3649 51.6673 98.3649ZM63.1383 96.9435C66.3739 93.4274 69.1606 88.4463 71.3114 82.399C75.7377 83.303 79.8025 84.5062 83.3622 85.9401C77.7265 91.1582 70.8064 94.9985 63.1383 96.9435ZM86.6539 82.5798C82.5767 80.7657 77.8574 79.2757 72.658 78.1785C73.1505 76.464 73.5932 74.681 73.9859 72.8357H69.4723C69.1232 74.4067 68.7367 75.9217 68.3065 77.3805C63.1134 76.5513 57.5213 76.1025 51.6673 76.1025C45.8134 76.1025 40.2212 76.5513 35.0281 77.3805C34.5979 75.9217 34.2114 74.4067 33.8623 72.8357H29.3487C29.7415 74.681 30.1903 76.464 30.6766 78.1785C25.4772 79.2757 20.7579 80.7657 16.6807 82.5798C9.36172 74.3257 4.91671 63.4781 4.91671 51.6143C4.91671 39.7506 9.36172 28.903 16.6807 20.6488C20.7579 22.463 25.4772 23.953 30.6766 25.044C30.1903 26.7584 29.7415 28.5476 29.3487 30.393H33.8623C34.2114 28.8219 34.5979 27.307 35.0281 25.8482C40.2212 26.6774 45.8134 27.1262 51.6673 27.1262C57.5213 27.1262 63.1134 26.6774 68.3065 25.8482C68.7367 27.307 69.1232 28.8219 69.4723 30.393H73.9859C73.5932 28.5476 73.1505 26.7584 72.658 25.044C77.8574 23.953 82.5767 22.463 86.6539 20.6488C93.9729 28.903 98.4179 39.7506 98.4179 51.6143C98.4179 63.4781 93.9729 74.3257 86.6539 82.5798Z" fill="#304E8E"/>
</svg>
