<svg width="103" height="102" viewBox="0 0 103 102" fill="none" xmlns="http://www.w3.org/2000/svg">
<path d="M65.7161 42.4226H64.6451V35.3427C64.6451 29.0031 59.4872 23.8452 53.1476 23.8452H51.5491C45.2095 23.8452 40.0516 29.0031 40.0516 35.3427V42.4226H38.9806C36.117 42.4226 33.7954 44.7443 33.7954 47.6078V66.9658C33.7954 69.8294 36.117 72.151 38.9806 72.151H65.7132C68.5768 72.151 70.8984 69.8294 70.8984 66.9658V47.6078C70.9013 44.7443 68.5797 42.4226 65.7161 42.4226ZM43.46 35.3427C43.46 30.8806 47.0898 27.2508 51.552 27.2508H53.1505C57.6127 27.2508 61.2425 30.8806 61.2425 35.3427V42.4226H43.46V35.3427Z" fill="#304E8E"/>
<path d="M52.3497 0.499756L53.642 4.47601H57.8224L54.4399 6.93277L55.7322 10.909L52.3497 8.45226L48.9671 10.909L50.2595 6.93277L46.877 4.47601H51.0573L52.3497 0.499756Z" fill="#304E8E"/>
<path d="M29.9166 6.15015L31.2089 10.1264H35.3893L32.0068 12.5846L33.2991 16.5594L29.9166 14.1026L26.534 16.5594L27.8264 12.5846L24.4438 10.1264H28.6257L29.9166 6.15015Z" fill="#304E8E"/>
<path d="M12.9693 21.6631L14.2617 25.6393H18.4421L15.0595 28.0961L16.3519 32.0724L12.9693 29.6141L9.58677 32.0724L10.8791 28.0961L7.49658 25.6393H11.677L12.9693 21.6631Z" fill="#304E8E"/>
<path d="M5.87117 44.9451L7.16353 48.9213H11.3439L7.96136 51.3781L9.25372 55.3543L5.87117 52.8976L2.48863 55.3543L3.78098 51.3781L0.398438 48.9213H4.57882L5.87117 44.9451Z" fill="#304E8E"/>
<path d="M12.6446 66.947L13.937 70.9233H18.1173L14.7348 73.38L16.0272 77.3563L12.6446 74.8995L9.26207 77.3563L10.5544 73.38L7.17188 70.9233H11.3523L12.6446 66.947Z" fill="#304E8E"/>
<path d="M27.4644 83.2029L28.7568 87.1791H32.9372L29.5546 89.6359L30.847 93.6121L27.4644 91.1554L24.0819 93.6121L25.3742 89.6359L21.9917 87.1791H26.1735L27.4644 83.2029Z" fill="#304E8E"/>
<path d="M50.317 91.4238L51.6093 95.4001H55.7897L52.4072 97.8568L53.6995 101.833L50.317 99.3763L46.9344 101.833L48.2268 97.8568L44.8442 95.4001H49.0246L50.317 91.4238Z" fill="#304E8E"/>
<path d="M73.4415 84.2195L74.7338 88.1957H78.9142L75.5317 90.6539L76.824 94.6287L73.4415 92.172L70.0589 94.6287L71.3513 90.6539L67.9688 88.1957H72.1491L73.4415 84.2195Z" fill="#304E8E"/>
<path d="M89.0059 68.7085L90.2969 72.6847H94.4787L91.0961 75.1415L92.3885 79.1178L89.0059 76.661L85.6234 79.1178L86.9158 75.1415L83.5332 72.6847H87.7136L89.0059 68.7085Z" fill="#304E8E"/>
<path d="M96.7965 46.9785L98.0888 50.9548H102.269L98.8867 53.4115L100.179 57.3878L96.7965 54.931L93.4139 57.3878L94.7063 53.4115L91.3237 50.9548H95.5041L96.7965 46.9785Z" fill="#304E8E"/>
<path d="M90.7135 23.4226L92.0058 27.3989H96.1862L92.8036 29.8571L94.096 33.8333L90.7135 31.3751L87.3309 33.8333L88.6233 29.8571L85.2407 27.3989H89.4211L90.7135 23.4226Z" fill="#304E8E"/>
<path d="M74.5113 7.1665L75.8022 11.1428H79.9826L76.6015 13.601L77.8924 17.5772L74.5113 15.119L71.1288 17.5772L72.4197 13.601L69.0386 11.1428H73.219L74.5113 7.1665Z" fill="#304E8E"/>
</svg>
