<svg width="92" height="103" viewBox="0 0 92 103" fill="none" xmlns="http://www.w3.org/2000/svg">
<path d="M91.6878 41.7078C91.6878 47.9388 91.686 54.1716 91.6878 60.4026C91.6878 63.3607 90.6499 66.0359 89.34 68.6039C86.8991 73.3872 83.3685 77.3276 79.5157 81.0033C73.9772 86.2858 67.8572 90.8168 61.3738 94.8521C57.7859 97.0854 54.096 99.1576 50.3971 101.201C48.9405 102.007 47.346 102.842 45.6138 102.427C44.2091 102.091 42.8311 101.507 41.5391 100.843C36.6556 98.3327 31.9922 95.4605 27.4433 92.3773C23.2649 89.5463 19.2367 86.5399 15.4501 83.2079C12.1181 80.2767 8.98651 77.1558 6.35417 73.5625C4.30878 70.7709 2.5336 67.829 1.61023 64.463C1.28991 63.298 1.02864 62.0722 1.02327 60.8715C0.982115 47.5147 1.01612 34.158 0.973168 20.7994C0.96601 18.3424 2.60518 16.646 4.71678 15.8568C7.08965 14.9692 9.47146 14.1067 11.8407 13.2084C15.2068 11.9307 18.5639 10.6333 21.9227 9.3413C25.6699 7.89897 29.4082 6.43338 33.1625 5.01074C35.5604 4.10167 37.987 3.26419 40.3903 2.36587C41.7879 1.84513 43.1318 1.15796 44.558 0.746378C46.0021 0.329427 47.4892 0.447533 48.91 1.05238C51.9397 2.3426 54.971 3.62388 58.0114 4.88905C61.9912 6.54433 65.9782 8.17813 69.9634 9.82089C73.9808 11.478 78 13.1261 82.012 14.7921C84.2525 15.7226 86.509 16.6245 88.7047 17.6535C90.6249 18.5536 91.6968 20.0944 91.6932 22.2972C91.6824 28.7662 91.6896 35.237 91.6878 41.7078ZM8.3405 41.613C8.3405 47.3376 8.36198 53.0621 8.32976 58.7867C8.31903 60.7927 8.79145 62.6628 9.61999 64.463C11.3647 68.2585 14.049 71.3668 16.9462 74.2927C20.5806 77.9629 24.5927 81.1965 28.8105 84.1742C34.2452 88.0109 39.8248 91.6078 45.8303 94.5014C46.0916 94.6284 46.5211 94.6481 46.7716 94.5193C48.7436 93.5118 50.7389 92.5365 52.6393 91.4038C59.3267 87.4186 65.7831 83.0934 71.6563 77.954C75.4017 74.6756 78.9252 71.1915 81.6237 66.9647C83.109 64.6401 84.2686 62.142 84.2829 59.3468C84.3384 47.8386 84.299 36.3304 84.3276 24.8204C84.3294 24.169 84.0771 23.838 83.5671 23.6232C82.0532 22.988 80.5268 22.3777 79.0075 21.7532C72.7389 19.1674 66.4685 16.5887 60.2053 13.9922C56.6049 12.4998 53.0151 10.9823 49.4254 9.4612C47.6288 8.69888 45.8643 7.70571 43.9048 9.02814C43.6865 9.17488 43.4288 9.26972 43.1801 9.36099C38.8961 10.959 34.6049 12.5355 30.3298 14.1532C27.2572 15.3164 24.2097 16.5476 21.1407 17.7233C17.186 19.2372 13.2258 20.7314 9.25851 22.2113C8.55703 22.4726 8.31187 22.8466 8.31724 23.634C8.36019 29.627 8.3405 35.62 8.3405 41.613Z" fill="#304E8E"/>
<path d="M31.3285 46.9905C34.342 49.6819 37.3018 52.4359 40.2347 55.215C40.7626 55.7143 40.9989 55.666 41.5017 55.2096C47.4571 49.8143 53.434 44.4405 59.4199 39.0774C60.3254 38.265 61.2004 37.2879 62.2777 36.8262C64.3338 35.9458 66.7085 36.9282 67.2811 39.2832C67.648 40.7899 67.265 42.1285 66.041 43.2326C61.1968 47.5954 56.3813 51.9886 51.5658 56.3835C48.8529 58.8602 46.1598 61.3601 43.4594 63.8493C42.0028 65.1914 39.5798 65.1073 38.1178 63.7151C34.4261 60.2005 30.695 56.7253 27.0247 53.1875C26.3626 52.5505 25.824 51.7434 25.3802 50.9328C24.2528 48.873 26.5577 45.7772 28.9395 46.0492C29.7412 46.1673 30.7129 46.4393 31.3285 46.9905Z" fill="#304E8E"/>
</svg>
