<svg width="33" height="33" viewBox="0 0 33 33" fill="none" xmlns="http://www.w3.org/2000/svg">
<path d="M16.2576 0.199219C13.1146 0.205712 10.0439 1.14245 7.43241 2.89137C4.82096 4.64029 2.78566 7.12311 1.58303 10.0269C0.380409 12.9307 0.0642838 16.1256 0.674502 19.2087C1.28472 22.2919 2.79397 25.1255 5.01203 27.3523L2.11252 30.2518C2.00725 30.3593 1.92419 30.4865 1.86807 30.6261C1.81195 30.7657 1.78389 30.915 1.78547 31.0655C1.78705 31.2159 1.81826 31.3646 1.8773 31.503C1.93634 31.6414 2.02207 31.7668 2.12958 31.8721C2.23709 31.9774 2.36428 32.0604 2.5039 32.1166C2.64351 32.1727 2.79281 32.2007 2.94327 32.1992C3.09373 32.1976 3.2424 32.1664 3.3808 32.1073C3.5192 32.0483 3.64462 31.9626 3.74989 31.8551L6.77448 28.8305C9.54042 30.9235 12.9181 32.0486 16.3867 32.0321C19.8553 32.0157 23.2221 30.8587 25.9681 28.7395L29.0837 31.8551C29.3012 32.0413 29.581 32.1387 29.8672 32.1276C30.1533 32.1166 30.4248 31.9979 30.6273 31.7954C30.8298 31.5929 30.9484 31.3215 30.9595 31.0353C30.9705 30.7491 30.8732 30.4693 30.6869 30.2518L27.6282 27.2386C29.8151 24.9986 31.293 22.1635 31.877 19.088C32.4611 16.0125 32.1253 12.833 30.9118 9.94728C29.6983 7.06155 27.6609 4.59768 25.0544 2.86384C22.4479 1.12999 19.3881 0.203144 16.2576 0.199219ZM24.7514 20.0182C24.6212 20.2891 24.389 20.4974 24.1056 20.5975C23.8222 20.6977 23.5107 20.6815 23.2391 20.5526L15.1205 16.6184V6.66911C15.1205 6.36754 15.2403 6.07832 15.4536 5.86508C15.6668 5.65184 15.956 5.53204 16.2576 5.53204C16.5592 5.53204 16.8484 5.65184 17.0616 5.86508C17.2749 6.07832 17.3946 6.36754 17.3946 6.66911V15.1971L24.217 18.5059C24.3531 18.5684 24.4756 18.6571 24.5773 18.767C24.679 18.8769 24.758 19.0058 24.8098 19.1463C24.8616 19.2868 24.8851 19.4362 24.879 19.5858C24.8729 19.7355 24.8372 19.8824 24.7742 20.0182H24.7514Z" fill="#00CCA9"/>
</svg>
