<svg width="33" height="32" viewBox="0 0 33 32" fill="none" xmlns="http://www.w3.org/2000/svg">
<path d="M26.0875 4.60938H6.21502C5.55621 4.60938 4.92438 4.87109 4.45852 5.33694C3.99267 5.80279 3.73096 6.43463 3.73096 7.09344V14.3966C3.73096 25.868 13.4312 29.6736 15.3763 30.317C15.8791 30.4859 16.4234 30.4859 16.9263 30.317C18.8713 29.6711 28.5716 25.868 28.5716 14.3966V7.09344C28.5716 6.43463 28.3099 5.80279 27.844 5.33694C27.3782 4.87109 26.7464 4.60938 26.0875 4.60938ZM25.5907 14.3966C25.5907 23.533 18.0727 26.7585 16.1513 27.4379C14.2299 26.7648 6.71184 23.5392 6.71184 14.4028V7.59025H25.5907V14.3966Z" fill="#1C1C1C"/>
</svg>
