<svg width="32" height="32" viewBox="0 0 32 32" fill="none" xmlns="http://www.w3.org/2000/svg">
<path d="M28.7908 8.8978L23.2402 3.34839C22.7743 2.8827 22.1426 2.62109 21.4839 2.62109C20.8252 2.62109 20.1935 2.8827 19.7277 3.34839L4.41095 18.6639C4.17949 18.8939 3.99598 19.1676 3.87104 19.4691C3.74611 19.7705 3.68223 20.0938 3.68311 20.4201V25.9708C3.68311 26.6296 3.94483 27.2614 4.41068 27.7273C4.87653 28.1931 5.50836 28.4548 6.16718 28.4548H11.7178C12.0442 28.4558 12.3674 28.392 12.6689 28.267C12.9704 28.1421 13.2441 27.9585 13.4741 27.727L23.3433 17.8591L23.8599 19.5842L19.5215 23.9227C19.2415 24.2027 19.0842 24.5824 19.0842 24.9784C19.0842 25.3744 19.2415 25.7541 19.5215 26.0341C19.8015 26.3141 20.1813 26.4714 20.5772 26.4714C20.9732 26.4714 21.353 26.3141 21.633 26.0341L26.6011 21.066C26.7914 20.8755 26.9265 20.637 26.9921 20.3759C27.0577 20.1148 27.0513 19.8408 26.9737 19.583L25.7391 15.4682L28.7933 12.414C29.0243 12.1831 29.2075 11.9089 29.3324 11.6072C29.4573 11.3054 29.5214 10.982 29.5212 10.6554C29.521 10.3288 29.4564 10.0054 29.331 9.70386C29.2057 9.40227 29.0221 9.12836 28.7908 8.8978ZM8.27864 19.0154L17.0971 10.197L21.941 15.0409L13.1226 23.8593L8.27864 19.0154ZM6.66399 21.6237L10.5143 25.474H6.66399V21.6237ZM24.0525 12.9294L19.2085 8.08551L21.4864 5.80762L26.3303 10.6515L24.0525 12.9294Z" fill="#1C1C1C"/>
</svg>
